<mxfile host="app.diagrams.net" agent="Mozilla/5.0 (Windows NT 10.0; Win64; x64) AppleWebKit/537.36 (KHTML, like Gecko) Chrome/129.0.0.0 Safari/537.36" version="24.7.16">
  <diagram id="C5RBs43oDa-KdzZeNtuy" name="Page-1">
    <mxGraphModel grid="1" page="1" gridSize="10" guides="1" tooltips="1" connect="1" arrows="1" fold="1" pageScale="1" pageWidth="827" pageHeight="1169" background="none" math="0" shadow="0">
      <root>
        <mxCell id="WIyWlLk6GJQsqaUBKTNV-0" />
        <mxCell id="WIyWlLk6GJQsqaUBKTNV-1" parent="WIyWlLk6GJQsqaUBKTNV-0" />
        <mxCell id="fl6Fv2vDVfS6njQqJ7qm-31" style="edgeStyle=orthogonalEdgeStyle;rounded=0;orthogonalLoop=1;jettySize=auto;html=1;exitX=0.5;exitY=0;exitDx=0;exitDy=0;labelBackgroundColor=none;strokeColor=#d79b00;fontColor=default;entryX=0.192;entryY=1.011;entryDx=0;entryDy=0;entryPerimeter=0;strokeWidth=3;endArrow=block;endFill=0;" edge="1" parent="WIyWlLk6GJQsqaUBKTNV-1" source="jk_qZapL9_kCgXDvO6Fo-0" target="HTfVYZgSSP5US-j0loT6-4">
          <mxGeometry relative="1" as="geometry">
            <mxPoint x="647" y="-220" as="targetPoint" />
            <Array as="points">
              <mxPoint x="620" y="-180" />
              <mxPoint x="646" y="-180" />
            </Array>
          </mxGeometry>
        </mxCell>
        <mxCell id="uxUUBDtPVxAtOmCFpbB9-209" style="edgeStyle=orthogonalEdgeStyle;rounded=0;orthogonalLoop=1;jettySize=auto;html=1;entryX=0;entryY=0.5;entryDx=0;entryDy=0;strokeWidth=3;fillColor=#ffe6cc;strokeColor=#d79b00;endArrow=diamond;endFill=1;" edge="1" parent="WIyWlLk6GJQsqaUBKTNV-1" source="jk_qZapL9_kCgXDvO6Fo-0" target="uxUUBDtPVxAtOmCFpbB9-8">
          <mxGeometry relative="1" as="geometry">
            <Array as="points">
              <mxPoint x="760" />
              <mxPoint x="760" y="985" />
            </Array>
          </mxGeometry>
        </mxCell>
        <mxCell id="jk_qZapL9_kCgXDvO6Fo-0" value="Player" style="swimlane;fontStyle=0;childLayout=stackLayout;horizontal=1;startSize=30;horizontalStack=0;resizeParent=1;resizeParentMax=0;resizeLast=0;collapsible=1;marginBottom=0;whiteSpace=wrap;html=1;swimlaneFillColor=default;gradientDirection=north;shadow=0;glass=0;rounded=0;labelBackgroundColor=none;fillColor=#F2CC8F;strokeColor=#E07A5F;fontColor=#393C56;" vertex="1" parent="WIyWlLk6GJQsqaUBKTNV-1">
          <mxGeometry x="520" y="-25" width="200" height="640" as="geometry" />
        </mxCell>
        <mxCell id="jk_qZapL9_kCgXDvO6Fo-2" value="+ Instance :&amp;nbsp;&lt;span style=&quot;text-align: center;&quot;&gt;Player&lt;/span&gt;" style="text;align=left;verticalAlign=middle;spacingLeft=4;spacingRight=4;overflow=hidden;points=[[0,0.5],[1,0.5]];portConstraint=eastwest;rotatable=0;whiteSpace=wrap;html=1;shadow=0;glass=0;rounded=0;labelBackgroundColor=none;fontColor=#393C56;" vertex="1" parent="jk_qZapL9_kCgXDvO6Fo-0">
          <mxGeometry y="30" width="200" height="30" as="geometry" />
        </mxCell>
        <mxCell id="ge2jfb7QDJQyRdWGK89G-4" value="- _instance :&amp;nbsp;&lt;span style=&quot;text-align: center;&quot;&gt;Player&lt;/span&gt;" style="text;align=left;verticalAlign=middle;spacingLeft=4;spacingRight=4;overflow=hidden;points=[[0,0.5],[1,0.5]];portConstraint=eastwest;rotatable=0;whiteSpace=wrap;html=1;shadow=0;glass=0;rounded=0;labelBackgroundColor=none;fontColor=#393C56;" vertex="1" parent="jk_qZapL9_kCgXDvO6Fo-0">
          <mxGeometry y="60" width="200" height="30" as="geometry" />
        </mxCell>
        <mxCell id="ge2jfb7QDJQyRdWGK89G-3" value="&lt;span class=&quot;hljs-bullet&quot;&gt;-&lt;/span&gt; idle : Animation" style="text;align=left;verticalAlign=middle;spacingLeft=4;spacingRight=4;overflow=hidden;points=[[0,0.5],[1,0.5]];portConstraint=eastwest;rotatable=0;whiteSpace=wrap;html=1;shadow=0;glass=0;rounded=0;labelBackgroundColor=none;fontColor=#393C56;" vertex="1" parent="jk_qZapL9_kCgXDvO6Fo-0">
          <mxGeometry y="90" width="200" height="30" as="geometry" />
        </mxCell>
        <mxCell id="uxUUBDtPVxAtOmCFpbB9-1" value="- frame : int" style="text;align=left;verticalAlign=middle;spacingLeft=4;spacingRight=4;overflow=hidden;points=[[0,0.5],[1,0.5]];portConstraint=eastwest;rotatable=0;whiteSpace=wrap;html=1;shadow=0;glass=0;rounded=0;labelBackgroundColor=none;fontColor=#393C56;" vertex="1" parent="jk_qZapL9_kCgXDvO6Fo-0">
          <mxGeometry y="120" width="200" height="30" as="geometry" />
        </mxCell>
        <mxCell id="jk_qZapL9_kCgXDvO6Fo-3" value="&lt;span class=&quot;hljs-bullet&quot;&gt;-&lt;/span&gt; VerticalTexturePath : string" style="text;align=left;verticalAlign=middle;spacingLeft=4;spacingRight=4;overflow=hidden;points=[[0,0.5],[1,0.5]];portConstraint=eastwest;rotatable=0;whiteSpace=wrap;html=1;shadow=0;glass=0;rounded=0;perimeterSpacing=1;labelBackgroundColor=none;fontColor=#393C56;" vertex="1" parent="jk_qZapL9_kCgXDvO6Fo-0">
          <mxGeometry y="150" width="200" height="30" as="geometry" />
        </mxCell>
        <mxCell id="jk_qZapL9_kCgXDvO6Fo-4" value="&lt;span class=&quot;hljs-bullet&quot;&gt;-&lt;/span&gt;&amp;nbsp;HorizontalTexturePath : string" style="text;align=left;verticalAlign=middle;spacingLeft=4;spacingRight=4;overflow=hidden;points=[[0,0.5],[1,0.5]];portConstraint=eastwest;rotatable=0;whiteSpace=wrap;html=1;shadow=0;glass=0;rounded=0;labelBackgroundColor=none;fontColor=#393C56;" vertex="1" parent="jk_qZapL9_kCgXDvO6Fo-0">
          <mxGeometry y="180" width="200" height="30" as="geometry" />
        </mxCell>
        <mxCell id="jk_qZapL9_kCgXDvO6Fo-5" value="&lt;span class=&quot;hljs-bullet&quot;&gt;-&lt;/span&gt; arrowTexturePath : string" style="text;align=left;verticalAlign=middle;spacingLeft=4;spacingRight=4;overflow=hidden;points=[[0,0.5],[1,0.5]];portConstraint=eastwest;rotatable=0;whiteSpace=wrap;html=1;shadow=0;glass=0;rounded=0;labelBackgroundColor=none;fontColor=#393C56;" vertex="1" parent="jk_qZapL9_kCgXDvO6Fo-0">
          <mxGeometry y="210" width="200" height="30" as="geometry" />
        </mxCell>
        <mxCell id="jk_qZapL9_kCgXDvO6Fo-6" value="&lt;span class=&quot;hljs-bullet&quot;&gt;-&lt;/span&gt; arrowAngle : float" style="text;align=left;verticalAlign=middle;spacingLeft=4;spacingRight=4;overflow=hidden;points=[[0,0.5],[1,0.5]];portConstraint=eastwest;rotatable=0;whiteSpace=wrap;html=1;shadow=0;glass=0;rounded=0;labelBackgroundColor=none;fontColor=#393C56;" vertex="1" parent="jk_qZapL9_kCgXDvO6Fo-0">
          <mxGeometry y="240" width="200" height="30" as="geometry" />
        </mxCell>
        <mxCell id="jk_qZapL9_kCgXDvO6Fo-7" value="&lt;span class=&quot;hljs-bullet&quot;&gt;-&lt;/span&gt; arrowVelocity : float" style="text;align=left;verticalAlign=middle;spacingLeft=4;spacingRight=4;overflow=hidden;points=[[0,0.5],[1,0.5]];portConstraint=eastwest;rotatable=0;whiteSpace=wrap;html=1;shadow=0;glass=0;rounded=0;labelBackgroundColor=none;fontColor=#393C56;" vertex="1" parent="jk_qZapL9_kCgXDvO6Fo-0">
          <mxGeometry y="270" width="200" height="30" as="geometry" />
        </mxCell>
        <mxCell id="jk_qZapL9_kCgXDvO6Fo-8" value="&lt;span class=&quot;hljs-bullet&quot;&gt;-&lt;/span&gt; baseArrowVelocity : float" style="text;align=left;verticalAlign=middle;spacingLeft=4;spacingRight=4;overflow=hidden;points=[[0,0.5],[1,0.5]];portConstraint=eastwest;rotatable=0;whiteSpace=wrap;html=1;shadow=0;glass=0;rounded=0;labelBackgroundColor=none;fontColor=#393C56;" vertex="1" parent="jk_qZapL9_kCgXDvO6Fo-0">
          <mxGeometry y="300" width="200" height="30" as="geometry" />
        </mxCell>
        <mxCell id="jk_qZapL9_kCgXDvO6Fo-11" value="&lt;span class=&quot;hljs-bullet&quot;&gt;-&lt;/span&gt; baseVelocity : float&amp;nbsp;" style="text;align=left;verticalAlign=middle;spacingLeft=4;spacingRight=4;overflow=hidden;points=[[0,0.5],[1,0.5]];portConstraint=eastwest;rotatable=0;whiteSpace=wrap;html=1;shadow=0;glass=0;rounded=0;labelBackgroundColor=none;fontColor=#393C56;" vertex="1" parent="jk_qZapL9_kCgXDvO6Fo-0">
          <mxGeometry y="330" width="200" height="30" as="geometry" />
        </mxCell>
        <mxCell id="jk_qZapL9_kCgXDvO6Fo-13" value="&lt;span class=&quot;hljs-bullet&quot;&gt;-&lt;/span&gt; moving : bool" style="text;align=left;verticalAlign=middle;spacingLeft=4;spacingRight=4;overflow=hidden;points=[[0,0.5],[1,0.5]];portConstraint=eastwest;rotatable=0;whiteSpace=wrap;html=1;shadow=0;glass=0;rounded=0;labelBackgroundColor=none;fontColor=#393C56;" vertex="1" parent="jk_qZapL9_kCgXDvO6Fo-0">
          <mxGeometry y="360" width="200" height="30" as="geometry" />
        </mxCell>
        <mxCell id="jk_qZapL9_kCgXDvO6Fo-14" value="&lt;span class=&quot;hljs-bullet&quot;&gt;-&lt;/span&gt; flipped : bool" style="text;align=left;verticalAlign=middle;spacingLeft=4;spacingRight=4;overflow=hidden;points=[[0,0.5],[1,0.5]];portConstraint=eastwest;rotatable=0;whiteSpace=wrap;html=1;shadow=0;glass=0;rounded=0;labelBackgroundColor=none;fontColor=#393C56;" vertex="1" parent="jk_qZapL9_kCgXDvO6Fo-0">
          <mxGeometry y="390" width="200" height="30" as="geometry" />
        </mxCell>
        <mxCell id="jk_qZapL9_kCgXDvO6Fo-15" value="&lt;span class=&quot;hljs-bullet&quot;&gt;-&lt;/span&gt; sideways : bool" style="text;align=left;verticalAlign=middle;spacingLeft=4;spacingRight=4;overflow=hidden;points=[[0,0.5],[1,0.5]];portConstraint=eastwest;rotatable=0;whiteSpace=wrap;html=1;shadow=0;glass=0;rounded=0;labelBackgroundColor=none;fontColor=#393C56;" vertex="1" parent="jk_qZapL9_kCgXDvO6Fo-0">
          <mxGeometry y="420" width="200" height="30" as="geometry" />
        </mxCell>
        <mxCell id="fEk0iojJ8SfyXAqyyFPa-43" value="&lt;div&gt;&lt;br&gt;&lt;/div&gt;&lt;div&gt;&lt;br&gt;&lt;/div&gt;" style="text;align=left;verticalAlign=middle;spacingLeft=4;spacingRight=4;overflow=hidden;points=[[0,0.5],[1,0.5]];portConstraint=eastwest;rotatable=0;whiteSpace=wrap;html=1;shadow=0;glass=0;rounded=0;labelBackgroundColor=none;fillColor=#ffe6cc;strokeColor=#FFB570;" vertex="1" parent="jk_qZapL9_kCgXDvO6Fo-0">
          <mxGeometry y="450" width="200" height="10" as="geometry" />
        </mxCell>
        <mxCell id="jk_qZapL9_kCgXDvO6Fo-17" value="&lt;span class=&quot;hljs-bullet&quot;&gt;+&lt;/span&gt; Input() : void" style="text;align=left;verticalAlign=middle;spacingLeft=4;spacingRight=4;overflow=hidden;points=[[0,0.5],[1,0.5]];portConstraint=eastwest;rotatable=0;whiteSpace=wrap;html=1;shadow=0;glass=0;rounded=0;labelBackgroundColor=none;fontColor=#393C56;" vertex="1" parent="jk_qZapL9_kCgXDvO6Fo-0">
          <mxGeometry y="460" width="200" height="30" as="geometry" />
        </mxCell>
        <mxCell id="vqqC-3udmHx_YVikaxWj-1" value="+ Update(float deltaTime) : void" style="text;align=left;verticalAlign=middle;spacingLeft=4;spacingRight=4;overflow=hidden;points=[[0,0.5],[1,0.5]];portConstraint=eastwest;rotatable=0;whiteSpace=wrap;html=1;shadow=0;glass=0;rounded=0;labelBackgroundColor=none;fontColor=#393C56;" vertex="1" parent="jk_qZapL9_kCgXDvO6Fo-0">
          <mxGeometry y="490" width="200" height="30" as="geometry" />
        </mxCell>
        <mxCell id="vqqC-3udmHx_YVikaxWj-2" value="+ Draw() : void" style="text;align=left;verticalAlign=middle;spacingLeft=4;spacingRight=4;overflow=hidden;points=[[0,0.5],[1,0.5]];portConstraint=eastwest;rotatable=0;whiteSpace=wrap;html=1;shadow=0;glass=0;rounded=0;labelBackgroundColor=none;fontColor=#393C56;" vertex="1" parent="jk_qZapL9_kCgXDvO6Fo-0">
          <mxGeometry y="520" width="200" height="30" as="geometry" />
        </mxCell>
        <mxCell id="uxUUBDtPVxAtOmCFpbB9-2" value="+ ResetStats() : void" style="text;align=left;verticalAlign=middle;spacingLeft=4;spacingRight=4;overflow=hidden;points=[[0,0.5],[1,0.5]];portConstraint=eastwest;rotatable=0;whiteSpace=wrap;html=1;shadow=0;glass=0;rounded=0;labelBackgroundColor=none;fontColor=#393C56;" vertex="1" parent="jk_qZapL9_kCgXDvO6Fo-0">
          <mxGeometry y="550" width="200" height="30" as="geometry" />
        </mxCell>
        <mxCell id="jk_qZapL9_kCgXDvO6Fo-20" value="&lt;span class=&quot;hljs-bullet&quot;&gt;-&lt;/span&gt; Colissions() : void" style="text;align=left;verticalAlign=middle;spacingLeft=4;spacingRight=4;overflow=hidden;points=[[0,0.5],[1,0.5]];portConstraint=eastwest;rotatable=0;whiteSpace=wrap;html=1;shadow=0;glass=0;rounded=0;labelBackgroundColor=none;fontColor=#393C56;" vertex="1" parent="jk_qZapL9_kCgXDvO6Fo-0">
          <mxGeometry y="580" width="200" height="30" as="geometry" />
        </mxCell>
        <mxCell id="vqqC-3udmHx_YVikaxWj-0" value="- PlayerTexture() : string" style="text;align=left;verticalAlign=middle;spacingLeft=4;spacingRight=4;overflow=hidden;points=[[0,0.5],[1,0.5]];portConstraint=eastwest;rotatable=0;whiteSpace=wrap;html=1;shadow=0;glass=0;rounded=0;labelBackgroundColor=none;fontColor=#393C56;" vertex="1" parent="jk_qZapL9_kCgXDvO6Fo-0">
          <mxGeometry y="610" width="200" height="30" as="geometry" />
        </mxCell>
        <mxCell id="fl6Fv2vDVfS6njQqJ7qm-8" value="Game Manager" style="swimlane;fontStyle=1;align=center;verticalAlign=top;childLayout=stackLayout;horizontal=1;startSize=26;horizontalStack=0;resizeParent=1;resizeParentMax=0;resizeLast=0;collapsible=1;marginBottom=0;whiteSpace=wrap;html=1;labelBackgroundColor=none;fillColor=#F2CC8F;strokeColor=#E07A5F;fontColor=#393C56;" vertex="1" parent="WIyWlLk6GJQsqaUBKTNV-1">
          <mxGeometry x="1171" y="-1140" width="270" height="200" as="geometry" />
        </mxCell>
        <mxCell id="uxUUBDtPVxAtOmCFpbB9-56" value="- _instance : GameManager" style="text;align=left;verticalAlign=middle;spacingLeft=4;spacingRight=4;overflow=hidden;points=[[0,0.5],[1,0.5]];portConstraint=eastwest;rotatable=0;whiteSpace=wrap;html=1;shadow=0;glass=0;rounded=0;labelBackgroundColor=none;fontColor=#393C56;" vertex="1" parent="fl6Fv2vDVfS6njQqJ7qm-8">
          <mxGeometry y="26" width="270" height="30" as="geometry" />
        </mxCell>
        <mxCell id="uxUUBDtPVxAtOmCFpbB9-55" value="+ Instance : GameManager" style="text;align=left;verticalAlign=middle;spacingLeft=4;spacingRight=4;overflow=hidden;points=[[0,0.5],[1,0.5]];portConstraint=eastwest;rotatable=0;whiteSpace=wrap;html=1;shadow=0;glass=0;rounded=0;labelBackgroundColor=none;fontColor=#393C56;" vertex="1" parent="fl6Fv2vDVfS6njQqJ7qm-8">
          <mxGeometry y="56" width="270" height="30" as="geometry" />
        </mxCell>
        <mxCell id="fl6Fv2vDVfS6njQqJ7qm-9" value="+ GameState : enum" style="text;align=left;verticalAlign=top;spacingLeft=4;spacingRight=4;overflow=hidden;rotatable=0;points=[[0,0.5],[1,0.5]];portConstraint=eastwest;whiteSpace=wrap;html=1;labelBackgroundColor=none;fontColor=#393C56;" vertex="1" parent="fl6Fv2vDVfS6njQqJ7qm-8">
          <mxGeometry y="86" width="270" height="26" as="geometry" />
        </mxCell>
        <mxCell id="uxUUBDtPVxAtOmCFpbB9-57" value="+ CurrentGameState : GameState" style="text;align=left;verticalAlign=top;spacingLeft=4;spacingRight=4;overflow=hidden;rotatable=0;points=[[0,0.5],[1,0.5]];portConstraint=eastwest;whiteSpace=wrap;html=1;labelBackgroundColor=none;fontColor=#393C56;" vertex="1" parent="fl6Fv2vDVfS6njQqJ7qm-8">
          <mxGeometry y="112" width="270" height="26" as="geometry" />
        </mxCell>
        <mxCell id="uxUUBDtPVxAtOmCFpbB9-59" value="&lt;div&gt;&lt;br&gt;&lt;/div&gt;&lt;div&gt;&lt;br&gt;&lt;/div&gt;" style="text;align=left;verticalAlign=middle;spacingLeft=4;spacingRight=4;overflow=hidden;points=[[0,0.5],[1,0.5]];portConstraint=eastwest;rotatable=0;whiteSpace=wrap;html=1;shadow=0;glass=0;rounded=0;perimeterSpacing=10;gradientDirection=north;fillStyle=auto;labelBackgroundColor=none;fillColor=#ffe6cc;strokeColor=#d79b00;" vertex="1" parent="fl6Fv2vDVfS6njQqJ7qm-8">
          <mxGeometry y="138" width="270" height="10" as="geometry" />
        </mxCell>
        <mxCell id="fl6Fv2vDVfS6njQqJ7qm-11" value="+ SetGameState(newState : GameState) : void" style="text;align=left;verticalAlign=top;spacingLeft=4;spacingRight=4;overflow=hidden;rotatable=0;points=[[0,0.5],[1,0.5]];portConstraint=eastwest;whiteSpace=wrap;html=1;labelBackgroundColor=none;fontColor=#393C56;" vertex="1" parent="fl6Fv2vDVfS6njQqJ7qm-8">
          <mxGeometry y="148" width="270" height="26" as="geometry" />
        </mxCell>
        <mxCell id="uxUUBDtPVxAtOmCFpbB9-60" value="+ ResetGame() : void" style="text;align=left;verticalAlign=top;spacingLeft=4;spacingRight=4;overflow=hidden;rotatable=0;points=[[0,0.5],[1,0.5]];portConstraint=eastwest;whiteSpace=wrap;html=1;labelBackgroundColor=none;fontColor=#393C56;" vertex="1" parent="fl6Fv2vDVfS6njQqJ7qm-8">
          <mxGeometry y="174" width="270" height="26" as="geometry" />
        </mxCell>
        <mxCell id="fl6Fv2vDVfS6njQqJ7qm-12" value="&lt;div&gt;GameObject&lt;/div&gt;" style="swimlane;fontStyle=1;align=center;verticalAlign=top;childLayout=stackLayout;horizontal=1;startSize=26;horizontalStack=0;resizeParent=1;resizeParentMax=0;resizeLast=0;collapsible=1;marginBottom=0;whiteSpace=wrap;html=1;labelBackgroundColor=none;fillColor=#F2CC8F;strokeColor=#E07A5F;fontColor=#393C56;" vertex="1" parent="WIyWlLk6GJQsqaUBKTNV-1">
          <mxGeometry x="600" y="-400" width="240" height="142" as="geometry" />
        </mxCell>
        <mxCell id="fl6Fv2vDVfS6njQqJ7qm-13" value="+ boxCollider : BoxCollider2D" style="text;align=left;verticalAlign=top;spacingLeft=4;spacingRight=4;overflow=hidden;rotatable=0;points=[[0,0.5],[1,0.5]];portConstraint=eastwest;whiteSpace=wrap;html=1;labelBackgroundColor=none;fontColor=#393C56;" vertex="1" parent="fl6Fv2vDVfS6njQqJ7qm-12">
          <mxGeometry y="26" width="240" height="26" as="geometry" />
        </mxCell>
        <mxCell id="fl6Fv2vDVfS6njQqJ7qm-15" value="# velocity : Vector2" style="text;align=left;verticalAlign=top;spacingLeft=4;spacingRight=4;overflow=hidden;rotatable=0;points=[[0,0.5],[1,0.5]];portConstraint=eastwest;whiteSpace=wrap;html=1;labelBackgroundColor=none;fontColor=#393C56;" vertex="1" parent="fl6Fv2vDVfS6njQqJ7qm-12">
          <mxGeometry y="52" width="240" height="26" as="geometry" />
        </mxCell>
        <mxCell id="HTfVYZgSSP5US-j0loT6-2" value="" style="text;align=left;verticalAlign=top;spacingLeft=4;spacingRight=4;overflow=hidden;rotatable=0;points=[[0,0.5],[1,0.5]];portConstraint=eastwest;whiteSpace=wrap;html=1;labelBackgroundColor=none;fillColor=#ffe6cc;strokeColor=#d79b00;" vertex="1" parent="fl6Fv2vDVfS6njQqJ7qm-12">
          <mxGeometry y="78" width="240" height="12" as="geometry" />
        </mxCell>
        <mxCell id="HTfVYZgSSP5US-j0loT6-3" value="# Update(deltaTime : float) : void" style="text;align=left;verticalAlign=top;spacingLeft=4;spacingRight=4;overflow=hidden;rotatable=0;points=[[0,0.5],[1,0.5]];portConstraint=eastwest;whiteSpace=wrap;html=1;labelBackgroundColor=none;fontColor=#393C56;" vertex="1" parent="fl6Fv2vDVfS6njQqJ7qm-12">
          <mxGeometry y="90" width="240" height="26" as="geometry" />
        </mxCell>
        <mxCell id="HTfVYZgSSP5US-j0loT6-4" value="# Draw() : void" style="text;align=left;verticalAlign=top;spacingLeft=4;spacingRight=4;overflow=hidden;rotatable=0;points=[[0,0.5],[1,0.5]];portConstraint=eastwest;whiteSpace=wrap;html=1;labelBackgroundColor=none;fontColor=#393C56;" vertex="1" parent="fl6Fv2vDVfS6njQqJ7qm-12">
          <mxGeometry y="116" width="240" height="26" as="geometry" />
        </mxCell>
        <mxCell id="fl6Fv2vDVfS6njQqJ7qm-16" value="Menu" style="swimlane;fontStyle=1;align=center;verticalAlign=top;childLayout=stackLayout;horizontal=1;startSize=26;horizontalStack=0;resizeParent=1;resizeParentMax=0;resizeLast=0;collapsible=1;marginBottom=0;whiteSpace=wrap;html=1;labelBackgroundColor=none;fillColor=#F2CC8F;strokeColor=#E07A5F;fontColor=#393C56;" vertex="1" parent="WIyWlLk6GJQsqaUBKTNV-1">
          <mxGeometry x="-440" y="-1260" width="190" height="140" as="geometry" />
        </mxCell>
        <mxCell id="fl6Fv2vDVfS6njQqJ7qm-17" value="# menuAnimation : Animation" style="text;align=left;verticalAlign=top;spacingLeft=4;spacingRight=4;overflow=hidden;rotatable=0;points=[[0,0.5],[1,0.5]];portConstraint=eastwest;whiteSpace=wrap;html=1;labelBackgroundColor=none;fontColor=#393C56;" vertex="1" parent="fl6Fv2vDVfS6njQqJ7qm-16">
          <mxGeometry y="26" width="190" height="26" as="geometry" />
        </mxCell>
        <mxCell id="uxUUBDtPVxAtOmCFpbB9-61" value="# frame : int" style="text;align=left;verticalAlign=top;spacingLeft=4;spacingRight=4;overflow=hidden;rotatable=0;points=[[0,0.5],[1,0.5]];portConstraint=eastwest;whiteSpace=wrap;html=1;labelBackgroundColor=none;fontColor=#393C56;" vertex="1" parent="fl6Fv2vDVfS6njQqJ7qm-16">
          <mxGeometry y="52" width="190" height="26" as="geometry" />
        </mxCell>
        <mxCell id="uxUUBDtPVxAtOmCFpbB9-103" value="&lt;div&gt;&lt;br&gt;&lt;/div&gt;&lt;div&gt;&lt;br&gt;&lt;/div&gt;" style="text;align=left;verticalAlign=middle;spacingLeft=4;spacingRight=4;overflow=hidden;points=[[0,0.5],[1,0.5]];portConstraint=eastwest;rotatable=0;whiteSpace=wrap;html=1;shadow=0;glass=0;rounded=0;perimeterSpacing=10;gradientDirection=north;fillStyle=auto;labelBackgroundColor=none;fillColor=#ffe6cc;strokeColor=#d79b00;" vertex="1" parent="fl6Fv2vDVfS6njQqJ7qm-16">
          <mxGeometry y="78" width="190" height="10" as="geometry" />
        </mxCell>
        <mxCell id="uxUUBDtPVxAtOmCFpbB9-104" value="+ Update(deltaTime : float) : void" style="text;align=left;verticalAlign=top;spacingLeft=4;spacingRight=4;overflow=hidden;rotatable=0;points=[[0,0.5],[1,0.5]];portConstraint=eastwest;whiteSpace=wrap;html=1;labelBackgroundColor=none;fontColor=#393C56;" vertex="1" parent="fl6Fv2vDVfS6njQqJ7qm-16">
          <mxGeometry y="88" width="190" height="26" as="geometry" />
        </mxCell>
        <mxCell id="uxUUBDtPVxAtOmCFpbB9-105" value="+ Draw() : void" style="text;align=left;verticalAlign=top;spacingLeft=4;spacingRight=4;overflow=hidden;rotatable=0;points=[[0,0.5],[1,0.5]];portConstraint=eastwest;whiteSpace=wrap;html=1;labelBackgroundColor=none;fontColor=#393C56;" vertex="1" parent="fl6Fv2vDVfS6njQqJ7qm-16">
          <mxGeometry y="114" width="190" height="26" as="geometry" />
        </mxCell>
        <mxCell id="uxUUBDtPVxAtOmCFpbB9-153" style="edgeStyle=orthogonalEdgeStyle;rounded=0;orthogonalLoop=1;jettySize=auto;html=1;entryX=0;entryY=0.5;entryDx=0;entryDy=0;strokeWidth=3;fillColor=#ffe6cc;strokeColor=#d79b00;endArrow=none;endFill=0;" edge="1" parent="WIyWlLk6GJQsqaUBKTNV-1" source="fEk0iojJ8SfyXAqyyFPa-25" target="jk_qZapL9_kCgXDvO6Fo-33">
          <mxGeometry relative="1" as="geometry">
            <Array as="points">
              <mxPoint x="450" y="-520" />
              <mxPoint x="450" y="-905" />
            </Array>
          </mxGeometry>
        </mxCell>
        <mxCell id="fEk0iojJ8SfyXAqyyFPa-25" value="DeltaTime" style="swimlane;fontStyle=0;childLayout=stackLayout;horizontal=1;startSize=30;horizontalStack=0;resizeParent=1;resizeParentMax=0;resizeLast=0;collapsible=1;marginBottom=0;whiteSpace=wrap;html=1;swimlaneFillColor=default;gradientDirection=north;shadow=0;glass=0;rounded=0;labelBackgroundColor=none;fillColor=#F2CC8F;strokeColor=#E07A5F;fontColor=#393C56;" vertex="1" parent="WIyWlLk6GJQsqaUBKTNV-1">
          <mxGeometry x="-90" y="-540" width="270" height="130" as="geometry" />
        </mxCell>
        <mxCell id="fEk0iojJ8SfyXAqyyFPa-26" value="- _deltaTime : float" style="text;align=left;verticalAlign=middle;spacingLeft=4;spacingRight=4;overflow=hidden;points=[[0,0.5],[1,0.5]];portConstraint=eastwest;rotatable=0;whiteSpace=wrap;html=1;shadow=0;glass=0;rounded=0;labelBackgroundColor=none;fontColor=#393C56;" vertex="1" parent="fEk0iojJ8SfyXAqyyFPa-25">
          <mxGeometry y="30" width="270" height="30" as="geometry" />
        </mxCell>
        <mxCell id="fEk0iojJ8SfyXAqyyFPa-27" value="- lastTime : DateTime" style="text;align=left;verticalAlign=middle;spacingLeft=4;spacingRight=4;overflow=hidden;points=[[0,0.5],[1,0.5]];portConstraint=eastwest;rotatable=0;whiteSpace=wrap;html=1;shadow=0;glass=0;rounded=0;labelBackgroundColor=none;fontColor=#393C56;" vertex="1" parent="fEk0iojJ8SfyXAqyyFPa-25">
          <mxGeometry y="60" width="270" height="30" as="geometry" />
        </mxCell>
        <mxCell id="fEk0iojJ8SfyXAqyyFPa-28" value="&lt;div&gt;&lt;br&gt;&lt;/div&gt;&lt;div&gt;&lt;br&gt;&lt;/div&gt;" style="text;align=left;verticalAlign=middle;spacingLeft=4;spacingRight=4;overflow=hidden;points=[[0,0.5],[1,0.5]];portConstraint=eastwest;rotatable=0;whiteSpace=wrap;html=1;shadow=0;glass=0;rounded=0;perimeterSpacing=10;gradientDirection=north;fillStyle=auto;labelBackgroundColor=none;fillColor=#ffe6cc;strokeColor=#d79b00;" vertex="1" parent="fEk0iojJ8SfyXAqyyFPa-25">
          <mxGeometry y="90" width="270" height="10" as="geometry" />
        </mxCell>
        <mxCell id="fEk0iojJ8SfyXAqyyFPa-35" value="+UpdatedDeltaTime() : float" style="text;align=left;verticalAlign=middle;spacingLeft=4;spacingRight=4;overflow=hidden;points=[[0,0.5],[1,0.5]];portConstraint=eastwest;rotatable=0;whiteSpace=wrap;html=1;shadow=0;glass=0;rounded=0;labelBackgroundColor=none;fontColor=#393C56;" vertex="1" parent="fEk0iojJ8SfyXAqyyFPa-25">
          <mxGeometry y="100" width="270" height="30" as="geometry" />
        </mxCell>
        <mxCell id="fEk0iojJ8SfyXAqyyFPa-36" value="BoxCollider2D" style="swimlane;fontStyle=0;childLayout=stackLayout;horizontal=1;startSize=30;horizontalStack=0;resizeParent=1;resizeParentMax=0;resizeLast=0;collapsible=1;marginBottom=0;whiteSpace=wrap;html=1;swimlaneFillColor=default;gradientDirection=north;shadow=0;glass=0;rounded=0;labelBackgroundColor=none;fillColor=#F2CC8F;strokeColor=#E07A5F;fontColor=#393C56;" vertex="1" parent="WIyWlLk6GJQsqaUBKTNV-1">
          <mxGeometry x="40" y="-380" width="330" height="190" as="geometry" />
        </mxCell>
        <mxCell id="fEk0iojJ8SfyXAqyyFPa-37" value="+ position : Vector2" style="text;align=left;verticalAlign=middle;spacingLeft=4;spacingRight=4;overflow=hidden;points=[[0,0.5],[1,0.5]];portConstraint=eastwest;rotatable=0;whiteSpace=wrap;html=1;shadow=0;glass=0;rounded=0;labelBackgroundColor=none;fontColor=#393C56;" vertex="1" parent="fEk0iojJ8SfyXAqyyFPa-36">
          <mxGeometry y="30" width="330" height="30" as="geometry" />
        </mxCell>
        <mxCell id="fEk0iojJ8SfyXAqyyFPa-38" value="- sizeX : float" style="text;align=left;verticalAlign=middle;spacingLeft=4;spacingRight=4;overflow=hidden;points=[[0,0.5],[1,0.5]];portConstraint=eastwest;rotatable=0;whiteSpace=wrap;html=1;shadow=0;glass=0;rounded=0;labelBackgroundColor=none;fontColor=#393C56;" vertex="1" parent="fEk0iojJ8SfyXAqyyFPa-36">
          <mxGeometry y="60" width="330" height="30" as="geometry" />
        </mxCell>
        <mxCell id="fEk0iojJ8SfyXAqyyFPa-41" value="- sizeY : float" style="text;align=left;verticalAlign=middle;spacingLeft=4;spacingRight=4;overflow=hidden;points=[[0,0.5],[1,0.5]];portConstraint=eastwest;rotatable=0;whiteSpace=wrap;html=1;shadow=0;glass=0;rounded=0;labelBackgroundColor=none;fontColor=#393C56;" vertex="1" parent="fEk0iojJ8SfyXAqyyFPa-36">
          <mxGeometry y="90" width="330" height="30" as="geometry" />
        </mxCell>
        <mxCell id="fEk0iojJ8SfyXAqyyFPa-39" value="&lt;div&gt;&lt;br&gt;&lt;/div&gt;&lt;div&gt;&lt;br&gt;&lt;/div&gt;" style="text;align=left;verticalAlign=middle;spacingLeft=4;spacingRight=4;overflow=hidden;points=[[0,0.5],[1,0.5]];portConstraint=eastwest;rotatable=0;whiteSpace=wrap;html=1;shadow=0;glass=0;rounded=0;perimeterSpacing=10;gradientDirection=north;fillStyle=auto;labelBackgroundColor=none;fillColor=#ffe6cc;strokeColor=#d79b00;" vertex="1" parent="fEk0iojJ8SfyXAqyyFPa-36">
          <mxGeometry y="120" width="330" height="10" as="geometry" />
        </mxCell>
        <mxCell id="fEk0iojJ8SfyXAqyyFPa-40" value="+ BoxCollider2D(position: Vector2, sizeX: float, sizeY: float)&amp;nbsp;" style="text;align=left;verticalAlign=middle;spacingLeft=4;spacingRight=4;overflow=hidden;points=[[0,0.5],[1,0.5]];portConstraint=eastwest;rotatable=0;whiteSpace=wrap;html=1;shadow=0;glass=0;rounded=0;labelBackgroundColor=none;fontColor=#393C56;" vertex="1" parent="fEk0iojJ8SfyXAqyyFPa-36">
          <mxGeometry y="130" width="330" height="30" as="geometry" />
        </mxCell>
        <mxCell id="fEk0iojJ8SfyXAqyyFPa-42" value="+ CollideWithSquare(other: BoxCollider2D) : bool" style="text;align=left;verticalAlign=middle;spacingLeft=4;spacingRight=4;overflow=hidden;points=[[0,0.5],[1,0.5]];portConstraint=eastwest;rotatable=0;whiteSpace=wrap;html=1;shadow=0;glass=0;rounded=0;labelBackgroundColor=none;fontColor=#393C56;" vertex="1" parent="fEk0iojJ8SfyXAqyyFPa-36">
          <mxGeometry y="160" width="330" height="30" as="geometry" />
        </mxCell>
        <mxCell id="uxUUBDtPVxAtOmCFpbB9-191" style="edgeStyle=orthogonalEdgeStyle;rounded=0;orthogonalLoop=1;jettySize=auto;html=1;entryX=0;entryY=0.5;entryDx=0;entryDy=0;strokeWidth=3;fillColor=#ffe6cc;strokeColor=#d79b00;endArrow=diamond;endFill=0;" edge="1" parent="WIyWlLk6GJQsqaUBKTNV-1" source="jk_qZapL9_kCgXDvO6Fo-22" target="ge2jfb7QDJQyRdWGK89G-3">
          <mxGeometry relative="1" as="geometry" />
        </mxCell>
        <mxCell id="uxUUBDtPVxAtOmCFpbB9-206" style="edgeStyle=orthogonalEdgeStyle;rounded=0;orthogonalLoop=1;jettySize=auto;html=1;entryX=0;entryY=0.5;entryDx=0;entryDy=0;fillColor=#ffe6cc;strokeColor=#d79b00;strokeWidth=3;endArrow=diamond;endFill=0;" edge="1" parent="WIyWlLk6GJQsqaUBKTNV-1" source="jk_qZapL9_kCgXDvO6Fo-22" target="uxUUBDtPVxAtOmCFpbB9-5">
          <mxGeometry relative="1" as="geometry">
            <Array as="points">
              <mxPoint x="370" y="290" />
              <mxPoint x="370" y="685" />
            </Array>
          </mxGeometry>
        </mxCell>
        <mxCell id="jk_qZapL9_kCgXDvO6Fo-22" value="Animation" style="swimlane;fontStyle=0;childLayout=stackLayout;horizontal=1;startSize=30;horizontalStack=0;resizeParent=1;resizeParentMax=0;resizeLast=0;collapsible=1;marginBottom=0;whiteSpace=wrap;html=1;swimlaneFillColor=default;gradientDirection=north;shadow=0;glass=0;rounded=0;labelBackgroundColor=none;fillColor=#F2CC8F;strokeColor=#E07A5F;fontColor=#393C56;" vertex="1" parent="WIyWlLk6GJQsqaUBKTNV-1">
          <mxGeometry y="270" width="310" height="230" as="geometry" />
        </mxCell>
        <mxCell id="jk_qZapL9_kCgXDvO6Fo-23" value="&lt;span class=&quot;hljs-bullet&quot;&gt;-&lt;/span&gt; fps : int" style="text;align=left;verticalAlign=middle;spacingLeft=4;spacingRight=4;overflow=hidden;points=[[0,0.5],[1,0.5]];portConstraint=eastwest;rotatable=0;whiteSpace=wrap;html=1;shadow=0;glass=0;rounded=0;labelBackgroundColor=none;fontColor=#393C56;" vertex="1" parent="jk_qZapL9_kCgXDvO6Fo-22">
          <mxGeometry y="30" width="310" height="30" as="geometry" />
        </mxCell>
        <mxCell id="jk_qZapL9_kCgXDvO6Fo-24" value="&lt;span class=&quot;hljs-bullet&quot;&gt;-&lt;/span&gt; currentFrame : int&amp;nbsp;" style="text;align=left;verticalAlign=middle;spacingLeft=4;spacingRight=4;overflow=hidden;points=[[0,0.5],[1,0.5]];portConstraint=eastwest;rotatable=0;whiteSpace=wrap;html=1;shadow=0;glass=0;rounded=0;labelBackgroundColor=none;fontColor=#393C56;" vertex="1" parent="jk_qZapL9_kCgXDvO6Fo-22">
          <mxGeometry y="60" width="310" height="30" as="geometry" />
        </mxCell>
        <mxCell id="jk_qZapL9_kCgXDvO6Fo-25" value="&lt;span class=&quot;hljs-bullet&quot;&gt;-&lt;/span&gt; nextFrame : float&amp;nbsp;" style="text;align=left;verticalAlign=middle;spacingLeft=4;spacingRight=4;overflow=hidden;points=[[0,0.5],[1,0.5]];portConstraint=eastwest;rotatable=0;whiteSpace=wrap;html=1;shadow=0;glass=0;rounded=0;labelBackgroundColor=none;fontColor=#393C56;" vertex="1" parent="jk_qZapL9_kCgXDvO6Fo-22">
          <mxGeometry y="90" width="310" height="30" as="geometry" />
        </mxCell>
        <mxCell id="jk_qZapL9_kCgXDvO6Fo-30" value="&lt;span class=&quot;hljs-bullet&quot;&gt;-&lt;/span&gt; timeLeft : float" style="text;align=left;verticalAlign=middle;spacingLeft=4;spacingRight=4;overflow=hidden;points=[[0,0.5],[1,0.5]];portConstraint=eastwest;rotatable=0;whiteSpace=wrap;html=1;shadow=0;glass=0;rounded=0;labelBackgroundColor=none;fontColor=#393C56;" vertex="1" parent="jk_qZapL9_kCgXDvO6Fo-22">
          <mxGeometry y="120" width="310" height="30" as="geometry" />
        </mxCell>
        <mxCell id="jk_qZapL9_kCgXDvO6Fo-26" value="&lt;div&gt;&lt;br&gt;&lt;/div&gt;&lt;div&gt;&lt;br&gt;&lt;/div&gt;" style="text;align=left;verticalAlign=middle;spacingLeft=4;spacingRight=4;overflow=hidden;points=[[0,0.5],[1,0.5]];portConstraint=eastwest;rotatable=0;whiteSpace=wrap;html=1;shadow=0;glass=0;rounded=0;perimeterSpacing=10;gradientDirection=north;fillStyle=auto;labelBackgroundColor=none;fillColor=#ffe6cc;strokeColor=#d79b00;" vertex="1" parent="jk_qZapL9_kCgXDvO6Fo-22">
          <mxGeometry y="150" width="310" height="10" as="geometry" />
        </mxCell>
        <mxCell id="jk_qZapL9_kCgXDvO6Fo-27" value="&lt;span class=&quot;hljs-bullet&quot;&gt;+&lt;/span&gt; Animation(fps : int) : void&amp;nbsp;" style="text;align=left;verticalAlign=middle;spacingLeft=4;spacingRight=4;overflow=hidden;points=[[0,0.5],[1,0.5]];portConstraint=eastwest;rotatable=0;whiteSpace=wrap;html=1;shadow=0;glass=0;rounded=0;labelBackgroundColor=none;fontColor=#393C56;" vertex="1" parent="jk_qZapL9_kCgXDvO6Fo-22">
          <mxGeometry y="160" width="310" height="30" as="geometry" />
        </mxCell>
        <mxCell id="jk_qZapL9_kCgXDvO6Fo-28" value="&lt;pre class=&quot;!overflow-visible&quot;&gt;&lt;div class=&quot;dark bg-gray-950 contain-inline-size rounded-md border-[0.5px] border-token-border-medium relative&quot;&gt;&lt;div dir=&quot;ltr&quot; class=&quot;overflow-y-auto p-4&quot;&gt;&lt;code class=&quot;!whitespace-pre hljs language-markdown&quot;&gt;&lt;font face=&quot;Helvetica&quot;&gt;&lt;span class=&quot;hljs-bullet&quot;&gt;+&lt;/span&gt; UpdateAnimation(deltaTime : float) : int&lt;/font&gt;&lt;br&gt;&lt;/code&gt;&lt;/div&gt;&lt;/div&gt;&lt;/pre&gt;&lt;h3&gt;&lt;/h3&gt;" style="text;align=left;verticalAlign=middle;spacingLeft=4;spacingRight=4;overflow=hidden;points=[[0,0.5],[1,0.5]];portConstraint=eastwest;rotatable=0;whiteSpace=wrap;html=1;shadow=0;glass=0;rounded=0;labelBackgroundColor=none;fontColor=#393C56;" vertex="1" parent="jk_qZapL9_kCgXDvO6Fo-22">
          <mxGeometry y="190" width="310" height="40" as="geometry" />
        </mxCell>
        <mxCell id="jk_qZapL9_kCgXDvO6Fo-31" value="Program" style="swimlane;fontStyle=0;childLayout=stackLayout;horizontal=1;startSize=30;horizontalStack=0;resizeParent=1;resizeParentMax=0;resizeLast=0;collapsible=1;marginBottom=0;whiteSpace=wrap;html=1;swimlaneFillColor=default;gradientDirection=north;shadow=0;glass=0;rounded=0;labelBackgroundColor=none;fillColor=#F2CC8F;strokeColor=#E07A5F;fontColor=#393C56;" vertex="1" parent="WIyWlLk6GJQsqaUBKTNV-1">
          <mxGeometry x="585" y="-1160" width="270" height="460" as="geometry" />
        </mxCell>
        <mxCell id="uxUUBDtPVxAtOmCFpbB9-39" value="- gameManager : GameManager" style="text;align=left;verticalAlign=middle;spacingLeft=4;spacingRight=4;overflow=hidden;points=[[0,0.5],[1,0.5]];portConstraint=eastwest;rotatable=0;whiteSpace=wrap;html=1;shadow=0;glass=0;rounded=0;labelBackgroundColor=none;fontColor=#393C56;" vertex="1" parent="jk_qZapL9_kCgXDvO6Fo-31">
          <mxGeometry y="30" width="270" height="30" as="geometry" />
        </mxCell>
        <mxCell id="uxUUBDtPVxAtOmCFpbB9-41" value="- enemyManager : EnemyManager" style="text;align=left;verticalAlign=middle;spacingLeft=4;spacingRight=4;overflow=hidden;points=[[0,0.5],[1,0.5]];portConstraint=eastwest;rotatable=0;whiteSpace=wrap;html=1;shadow=0;glass=0;rounded=0;labelBackgroundColor=none;fontColor=#393C56;" vertex="1" parent="jk_qZapL9_kCgXDvO6Fo-31">
          <mxGeometry y="60" width="270" height="30" as="geometry" />
        </mxCell>
        <mxCell id="uxUUBDtPVxAtOmCFpbB9-40" value="- mainMenu : MainMenu" style="text;align=left;verticalAlign=middle;spacingLeft=4;spacingRight=4;overflow=hidden;points=[[0,0.5],[1,0.5]];portConstraint=eastwest;rotatable=0;whiteSpace=wrap;html=1;shadow=0;glass=0;rounded=0;labelBackgroundColor=none;fontColor=#393C56;" vertex="1" parent="jk_qZapL9_kCgXDvO6Fo-31">
          <mxGeometry y="90" width="270" height="30" as="geometry" />
        </mxCell>
        <mxCell id="uxUUBDtPVxAtOmCFpbB9-38" value="- victoryMenu : VictoryMenu" style="text;align=left;verticalAlign=middle;spacingLeft=4;spacingRight=4;overflow=hidden;points=[[0,0.5],[1,0.5]];portConstraint=eastwest;rotatable=0;whiteSpace=wrap;html=1;shadow=0;glass=0;rounded=0;labelBackgroundColor=none;fontColor=#393C56;" vertex="1" parent="jk_qZapL9_kCgXDvO6Fo-31">
          <mxGeometry y="120" width="270" height="30" as="geometry" />
        </mxCell>
        <mxCell id="uxUUBDtPVxAtOmCFpbB9-37" value="- defeatMenu : DefeatMenu" style="text;align=left;verticalAlign=middle;spacingLeft=4;spacingRight=4;overflow=hidden;points=[[0,0.5],[1,0.5]];portConstraint=eastwest;rotatable=0;whiteSpace=wrap;html=1;shadow=0;glass=0;rounded=0;labelBackgroundColor=none;fontColor=#393C56;" vertex="1" parent="jk_qZapL9_kCgXDvO6Fo-31">
          <mxGeometry y="150" width="270" height="30" as="geometry" />
        </mxCell>
        <mxCell id="uxUUBDtPVxAtOmCFpbB9-36" value="- timer : Timer" style="text;align=left;verticalAlign=middle;spacingLeft=4;spacingRight=4;overflow=hidden;points=[[0,0.5],[1,0.5]];portConstraint=eastwest;rotatable=0;whiteSpace=wrap;html=1;shadow=0;glass=0;rounded=0;labelBackgroundColor=none;fontColor=#393C56;" vertex="1" parent="jk_qZapL9_kCgXDvO6Fo-31">
          <mxGeometry y="180" width="270" height="30" as="geometry" />
        </mxCell>
        <mxCell id="jk_qZapL9_kCgXDvO6Fo-32" value="&lt;span class=&quot;hljs-bullet&quot;&gt;-&lt;/span&gt; player : Player&amp;nbsp;" style="text;align=left;verticalAlign=middle;spacingLeft=4;spacingRight=4;overflow=hidden;points=[[0,0.5],[1,0.5]];portConstraint=eastwest;rotatable=0;whiteSpace=wrap;html=1;shadow=0;glass=0;rounded=0;labelBackgroundColor=none;fontColor=#393C56;" vertex="1" parent="jk_qZapL9_kCgXDvO6Fo-31">
          <mxGeometry y="210" width="270" height="30" as="geometry" />
        </mxCell>
        <mxCell id="jk_qZapL9_kCgXDvO6Fo-33" value="&lt;span class=&quot;hljs-bullet&quot;&gt;-&lt;/span&gt; deltaTime : float&amp;nbsp;" style="text;align=left;verticalAlign=middle;spacingLeft=4;spacingRight=4;overflow=hidden;points=[[0,0.5],[1,0.5]];portConstraint=eastwest;rotatable=0;whiteSpace=wrap;html=1;shadow=0;glass=0;rounded=0;labelBackgroundColor=none;fontColor=#393C56;" vertex="1" parent="jk_qZapL9_kCgXDvO6Fo-31">
          <mxGeometry y="240" width="270" height="30" as="geometry" />
        </mxCell>
        <mxCell id="jk_qZapL9_kCgXDvO6Fo-34" value="&lt;div&gt;&lt;br&gt;&lt;/div&gt;&lt;div&gt;&lt;br&gt;&lt;/div&gt;" style="text;align=left;verticalAlign=middle;spacingLeft=4;spacingRight=4;overflow=hidden;points=[[0,0.5],[1,0.5]];portConstraint=eastwest;rotatable=0;whiteSpace=wrap;html=1;shadow=0;glass=0;rounded=0;perimeterSpacing=10;gradientDirection=north;fillStyle=auto;labelBackgroundColor=none;fillColor=#ffe6cc;strokeColor=#d79b00;" vertex="1" parent="jk_qZapL9_kCgXDvO6Fo-31">
          <mxGeometry y="270" width="270" height="10" as="geometry" />
        </mxCell>
        <mxCell id="jk_qZapL9_kCgXDvO6Fo-35" value="&lt;span class=&quot;hljs-bullet&quot;&gt;+&lt;/span&gt; Main(args : string[]) : void&amp;nbsp;" style="text;align=left;verticalAlign=middle;spacingLeft=4;spacingRight=4;overflow=hidden;points=[[0,0.5],[1,0.5]];portConstraint=eastwest;rotatable=0;whiteSpace=wrap;html=1;shadow=0;glass=0;rounded=0;labelBackgroundColor=none;fontColor=#393C56;" vertex="1" parent="jk_qZapL9_kCgXDvO6Fo-31">
          <mxGeometry y="280" width="270" height="30" as="geometry" />
        </mxCell>
        <mxCell id="jk_qZapL9_kCgXDvO6Fo-36" value="&lt;span class=&quot;hljs-bullet&quot;&gt;-&lt;/span&gt; Clear() : void&amp;nbsp;" style="text;align=left;verticalAlign=middle;spacingLeft=4;spacingRight=4;overflow=hidden;points=[[0,0.5],[1,0.5]];portConstraint=eastwest;rotatable=0;whiteSpace=wrap;html=1;shadow=0;glass=0;rounded=0;labelBackgroundColor=none;fontColor=#393C56;" vertex="1" parent="jk_qZapL9_kCgXDvO6Fo-31">
          <mxGeometry y="310" width="270" height="30" as="geometry" />
        </mxCell>
        <mxCell id="jk_qZapL9_kCgXDvO6Fo-37" value="&lt;span class=&quot;hljs-bullet&quot;&gt;-&lt;/span&gt; Input() : void&amp;nbsp;" style="text;align=left;verticalAlign=middle;spacingLeft=4;spacingRight=4;overflow=hidden;points=[[0,0.5],[1,0.5]];portConstraint=eastwest;rotatable=0;whiteSpace=wrap;html=1;shadow=0;glass=0;rounded=0;labelBackgroundColor=none;fontColor=#393C56;" vertex="1" parent="jk_qZapL9_kCgXDvO6Fo-31">
          <mxGeometry y="340" width="270" height="30" as="geometry" />
        </mxCell>
        <mxCell id="jk_qZapL9_kCgXDvO6Fo-38" value="&lt;span class=&quot;hljs-bullet&quot;&gt;-&lt;/span&gt; Update() : void&amp;nbsp;" style="text;align=left;verticalAlign=middle;spacingLeft=4;spacingRight=4;overflow=hidden;points=[[0,0.5],[1,0.5]];portConstraint=eastwest;rotatable=0;whiteSpace=wrap;html=1;shadow=0;glass=0;rounded=0;labelBackgroundColor=none;fontColor=#393C56;" vertex="1" parent="jk_qZapL9_kCgXDvO6Fo-31">
          <mxGeometry y="370" width="270" height="30" as="geometry" />
        </mxCell>
        <mxCell id="jk_qZapL9_kCgXDvO6Fo-39" value="&lt;span class=&quot;hljs-bullet&quot;&gt;-&lt;/span&gt; Draw() : void&amp;nbsp;" style="text;align=left;verticalAlign=middle;spacingLeft=4;spacingRight=4;overflow=hidden;points=[[0,0.5],[1,0.5]];portConstraint=eastwest;rotatable=0;whiteSpace=wrap;html=1;shadow=0;glass=0;rounded=0;labelBackgroundColor=none;fontColor=#393C56;" vertex="1" parent="jk_qZapL9_kCgXDvO6Fo-31">
          <mxGeometry y="400" width="270" height="30" as="geometry" />
        </mxCell>
        <mxCell id="uxUUBDtPVxAtOmCFpbB9-42" value="- Environment() : void" style="text;align=left;verticalAlign=middle;spacingLeft=4;spacingRight=4;overflow=hidden;points=[[0,0.5],[1,0.5]];portConstraint=eastwest;rotatable=0;whiteSpace=wrap;html=1;shadow=0;glass=0;rounded=0;labelBackgroundColor=none;fontColor=#393C56;" vertex="1" parent="jk_qZapL9_kCgXDvO6Fo-31">
          <mxGeometry y="430" width="270" height="30" as="geometry" />
        </mxCell>
        <mxCell id="uxUUBDtPVxAtOmCFpbB9-167" style="edgeStyle=orthogonalEdgeStyle;rounded=0;orthogonalLoop=1;jettySize=auto;html=1;entryX=1;entryY=0.5;entryDx=0;entryDy=0;strokeWidth=3;fillColor=#ffe6cc;strokeColor=#d79b00;endArrow=none;endFill=0;" edge="1" parent="WIyWlLk6GJQsqaUBKTNV-1" source="fl6Fv2vDVfS6njQqJ7qm-52" target="fl6Fv2vDVfS6njQqJ7qm-11">
          <mxGeometry relative="1" as="geometry" />
        </mxCell>
        <mxCell id="fl6Fv2vDVfS6njQqJ7qm-52" value="Audio Manager" style="swimlane;fontStyle=0;childLayout=stackLayout;horizontal=1;startSize=26;horizontalStack=0;resizeParent=1;resizeParentMax=0;resizeLast=0;collapsible=1;marginBottom=0;whiteSpace=wrap;html=1;labelBackgroundColor=none;fillColor=#F2CC8F;strokeColor=#E07A5F;fontColor=#393C56;" vertex="1" parent="WIyWlLk6GJQsqaUBKTNV-1">
          <mxGeometry x="1580" y="-1140" width="320" height="166" as="geometry" />
        </mxCell>
        <mxCell id="fl6Fv2vDVfS6njQqJ7qm-55" value="+ Instance : AudioManager" style="text;align=left;verticalAlign=top;spacingLeft=4;spacingRight=4;overflow=hidden;rotatable=0;points=[[0,0.5],[1,0.5]];portConstraint=eastwest;whiteSpace=wrap;html=1;labelBackgroundColor=none;fontColor=#393C56;" vertex="1" parent="fl6Fv2vDVfS6njQqJ7qm-52">
          <mxGeometry y="26" width="320" height="26" as="geometry" />
        </mxCell>
        <mxCell id="fl6Fv2vDVfS6njQqJ7qm-53" value="- instance : AudioManager" style="text;align=left;verticalAlign=top;spacingLeft=4;spacingRight=4;overflow=hidden;rotatable=0;points=[[0,0.5],[1,0.5]];portConstraint=eastwest;whiteSpace=wrap;html=1;labelBackgroundColor=none;fontColor=#393C56;" vertex="1" parent="fl6Fv2vDVfS6njQqJ7qm-52">
          <mxGeometry y="52" width="320" height="26" as="geometry" />
        </mxCell>
        <mxCell id="fl6Fv2vDVfS6njQqJ7qm-54" value="- soundPlayer : SoundPlayer" style="text;align=left;verticalAlign=top;spacingLeft=4;spacingRight=4;overflow=hidden;rotatable=0;points=[[0,0.5],[1,0.5]];portConstraint=eastwest;whiteSpace=wrap;html=1;labelBackgroundColor=none;fontColor=#393C56;" vertex="1" parent="fl6Fv2vDVfS6njQqJ7qm-52">
          <mxGeometry y="78" width="320" height="26" as="geometry" />
        </mxCell>
        <mxCell id="uxUUBDtPVxAtOmCFpbB9-109" value="&lt;div&gt;&lt;br&gt;&lt;/div&gt;&lt;div&gt;&lt;br&gt;&lt;/div&gt;" style="text;align=left;verticalAlign=middle;spacingLeft=4;spacingRight=4;overflow=hidden;points=[[0,0.5],[1,0.5]];portConstraint=eastwest;rotatable=0;whiteSpace=wrap;html=1;shadow=0;glass=0;rounded=0;perimeterSpacing=10;gradientDirection=north;fillStyle=auto;labelBackgroundColor=none;fillColor=#ffe6cc;strokeColor=#d79b00;" vertex="1" parent="fl6Fv2vDVfS6njQqJ7qm-52">
          <mxGeometry y="104" width="320" height="10" as="geometry" />
        </mxCell>
        <mxCell id="uxUUBDtPVxAtOmCFpbB9-110" value="+ PlayAudioLoop(filePath : string) : void" style="text;align=left;verticalAlign=top;spacingLeft=4;spacingRight=4;overflow=hidden;rotatable=0;points=[[0,0.5],[1,0.5]];portConstraint=eastwest;whiteSpace=wrap;html=1;labelBackgroundColor=none;fontColor=#393C56;" vertex="1" parent="fl6Fv2vDVfS6njQqJ7qm-52">
          <mxGeometry y="114" width="320" height="26" as="geometry" />
        </mxCell>
        <mxCell id="uxUUBDtPVxAtOmCFpbB9-111" value="+ StopAudio() : void" style="text;align=left;verticalAlign=top;spacingLeft=4;spacingRight=4;overflow=hidden;rotatable=0;points=[[0,0.5],[1,0.5]];portConstraint=eastwest;whiteSpace=wrap;html=1;labelBackgroundColor=none;fontColor=#393C56;" vertex="1" parent="fl6Fv2vDVfS6njQqJ7qm-52">
          <mxGeometry y="140" width="320" height="26" as="geometry" />
        </mxCell>
        <mxCell id="uxUUBDtPVxAtOmCFpbB9-121" style="edgeStyle=orthogonalEdgeStyle;rounded=0;orthogonalLoop=1;jettySize=auto;html=1;entryX=1;entryY=0.5;entryDx=0;entryDy=0;endArrow=diamond;endFill=1;startArrow=none;startFill=0;fillColor=#ffe6cc;strokeColor=#d79b00;strokeWidth=3;" edge="1" parent="WIyWlLk6GJQsqaUBKTNV-1" source="HTfVYZgSSP5US-j0loT6-14" target="uxUUBDtPVxAtOmCFpbB9-31">
          <mxGeometry relative="1" as="geometry" />
        </mxCell>
        <mxCell id="HTfVYZgSSP5US-j0loT6-14" value="Enemy" style="swimlane;fontStyle=0;childLayout=stackLayout;horizontal=1;startSize=30;horizontalStack=0;resizeParent=1;resizeParentMax=0;resizeLast=0;collapsible=1;marginBottom=0;whiteSpace=wrap;html=1;swimlaneFillColor=default;gradientDirection=north;shadow=0;glass=0;rounded=0;labelBackgroundColor=none;fillColor=#F2CC8F;strokeColor=#E07A5F;fontColor=#393C56;" vertex="1" parent="WIyWlLk6GJQsqaUBKTNV-1">
          <mxGeometry x="1360" y="610" width="200" height="220" as="geometry" />
        </mxCell>
        <mxCell id="uxUUBDtPVxAtOmCFpbB9-3" value="# lifeTime : float" style="text;align=left;verticalAlign=middle;spacingLeft=4;spacingRight=4;overflow=hidden;points=[[0,0.5],[1,0.5]];portConstraint=eastwest;rotatable=0;whiteSpace=wrap;html=1;shadow=0;glass=0;rounded=0;labelBackgroundColor=none;fontColor=#393C56;" vertex="1" parent="HTfVYZgSSP5US-j0loT6-14">
          <mxGeometry y="30" width="200" height="30" as="geometry" />
        </mxCell>
        <mxCell id="uxUUBDtPVxAtOmCFpbB9-5" value="# animation : Animation" style="text;align=left;verticalAlign=middle;spacingLeft=4;spacingRight=4;overflow=hidden;points=[[0,0.5],[1,0.5]];portConstraint=eastwest;rotatable=0;whiteSpace=wrap;html=1;shadow=0;glass=0;rounded=0;labelBackgroundColor=none;fontColor=#393C56;" vertex="1" parent="HTfVYZgSSP5US-j0loT6-14">
          <mxGeometry y="60" width="200" height="30" as="geometry" />
        </mxCell>
        <mxCell id="uxUUBDtPVxAtOmCFpbB9-6" value="# frame : int" style="text;align=left;verticalAlign=middle;spacingLeft=4;spacingRight=4;overflow=hidden;points=[[0,0.5],[1,0.5]];portConstraint=eastwest;rotatable=0;whiteSpace=wrap;html=1;shadow=0;glass=0;rounded=0;labelBackgroundColor=none;fontColor=#393C56;" vertex="1" parent="HTfVYZgSSP5US-j0loT6-14">
          <mxGeometry y="90" width="200" height="30" as="geometry" />
        </mxCell>
        <mxCell id="uxUUBDtPVxAtOmCFpbB9-24" value="# textureAngle : float" style="text;align=left;verticalAlign=middle;spacingLeft=4;spacingRight=4;overflow=hidden;points=[[0,0.5],[1,0.5]];portConstraint=eastwest;rotatable=0;whiteSpace=wrap;html=1;shadow=0;glass=0;rounded=0;labelBackgroundColor=none;fontColor=#393C56;" vertex="1" parent="HTfVYZgSSP5US-j0loT6-14">
          <mxGeometry y="120" width="200" height="30" as="geometry" />
        </mxCell>
        <mxCell id="uxUUBDtPVxAtOmCFpbB9-4" value="&lt;div&gt;&lt;br&gt;&lt;/div&gt;&lt;div&gt;&lt;br&gt;&lt;/div&gt;" style="text;align=left;verticalAlign=middle;spacingLeft=4;spacingRight=4;overflow=hidden;points=[[0,0.5],[1,0.5]];portConstraint=eastwest;rotatable=0;whiteSpace=wrap;html=1;shadow=0;glass=0;rounded=0;labelBackgroundColor=none;fillColor=#ffe6cc;strokeColor=#FFB570;" vertex="1" parent="HTfVYZgSSP5US-j0loT6-14">
          <mxGeometry y="150" width="200" height="10" as="geometry" />
        </mxCell>
        <mxCell id="uxUUBDtPVxAtOmCFpbB9-7" value="+ LifetimeCheck() : bool" style="text;align=left;verticalAlign=middle;spacingLeft=4;spacingRight=4;overflow=hidden;points=[[0,0.5],[1,0.5]];portConstraint=eastwest;rotatable=0;whiteSpace=wrap;html=1;shadow=0;glass=0;rounded=0;labelBackgroundColor=none;fontColor=#393C56;" vertex="1" parent="HTfVYZgSSP5US-j0loT6-14">
          <mxGeometry y="160" width="200" height="30" as="geometry" />
        </mxCell>
        <mxCell id="_0O2KOKne8RBnipblJuF-0" value="+ CollideWithPlayer() : bool" style="text;align=left;verticalAlign=middle;spacingLeft=4;spacingRight=4;overflow=hidden;points=[[0,0.5],[1,0.5]];portConstraint=eastwest;rotatable=0;whiteSpace=wrap;html=1;shadow=0;glass=0;rounded=0;labelBackgroundColor=none;fontColor=#393C56;" vertex="1" parent="HTfVYZgSSP5US-j0loT6-14">
          <mxGeometry y="190" width="200" height="30" as="geometry" />
        </mxCell>
        <mxCell id="HTfVYZgSSP5US-j0loT6-30" style="edgeStyle=orthogonalEdgeStyle;rounded=0;orthogonalLoop=1;jettySize=auto;html=1;strokeColor=#d79b00;fontColor=#393C56;fillColor=#ffe6cc;exitX=0.005;exitY=0.083;exitDx=0;exitDy=0;entryX=0.782;entryY=0.996;entryDx=0;entryDy=0;entryPerimeter=0;strokeWidth=3;exitPerimeter=0;endArrow=block;endFill=0;" edge="1" parent="WIyWlLk6GJQsqaUBKTNV-1" source="HTfVYZgSSP5US-j0loT6-14" target="HTfVYZgSSP5US-j0loT6-4">
          <mxGeometry relative="1" as="geometry">
            <Array as="points">
              <mxPoint x="1361" y="630" />
              <mxPoint x="810" y="630" />
              <mxPoint x="810" y="-177" />
              <mxPoint x="788" y="-177" />
            </Array>
            <mxPoint x="788" y="-225" as="targetPoint" />
          </mxGeometry>
        </mxCell>
        <mxCell id="uxUUBDtPVxAtOmCFpbB9-122" style="edgeStyle=orthogonalEdgeStyle;rounded=0;orthogonalLoop=1;jettySize=auto;html=1;entryX=1;entryY=0.5;entryDx=0;entryDy=0;endArrow=none;endFill=0;strokeWidth=3;horizontal=1;verticalAlign=middle;fillColor=#ffe6cc;strokeColor=#d79b00;" edge="1" parent="WIyWlLk6GJQsqaUBKTNV-1" source="HTfVYZgSSP5US-j0loT6-35" target="uxUUBDtPVxAtOmCFpbB9-41">
          <mxGeometry relative="1" as="geometry">
            <Array as="points">
              <mxPoint x="1050" y="-890" />
              <mxPoint x="1050" y="-1085" />
            </Array>
          </mxGeometry>
        </mxCell>
        <mxCell id="HTfVYZgSSP5US-j0loT6-35" value="EnemyManager" style="swimlane;fontStyle=0;childLayout=stackLayout;horizontal=1;startSize=30;horizontalStack=0;resizeParent=1;resizeParentMax=0;resizeLast=0;collapsible=1;marginBottom=0;whiteSpace=wrap;html=1;swimlaneFillColor=default;gradientDirection=north;shadow=0;glass=0;rounded=0;labelBackgroundColor=none;fillColor=#F2CC8F;strokeColor=#E07A5F;fontColor=#393C56;" vertex="1" parent="WIyWlLk6GJQsqaUBKTNV-1">
          <mxGeometry x="1241" y="-910" width="200" height="370" as="geometry" />
        </mxCell>
        <mxCell id="ge2jfb7QDJQyRdWGK89G-1" value="+ Instance : EnemyManager" style="text;align=left;verticalAlign=middle;spacingLeft=4;spacingRight=4;overflow=hidden;points=[[0,0.5],[1,0.5]];portConstraint=eastwest;rotatable=0;whiteSpace=wrap;html=1;shadow=0;glass=0;rounded=0;labelBackgroundColor=none;fontColor=#393C56;" vertex="1" parent="HTfVYZgSSP5US-j0loT6-35">
          <mxGeometry y="30" width="200" height="30" as="geometry" />
        </mxCell>
        <mxCell id="ge2jfb7QDJQyRdWGK89G-0" value="- _instance : EnemyManager" style="text;align=left;verticalAlign=middle;spacingLeft=4;spacingRight=4;overflow=hidden;points=[[0,0.5],[1,0.5]];portConstraint=eastwest;rotatable=0;whiteSpace=wrap;html=1;shadow=0;glass=0;rounded=0;labelBackgroundColor=none;fontColor=#393C56;" vertex="1" parent="HTfVYZgSSP5US-j0loT6-35">
          <mxGeometry y="60" width="200" height="30" as="geometry" />
        </mxCell>
        <mxCell id="_0O2KOKne8RBnipblJuF-2" value="- spawnRate : float" style="text;align=left;verticalAlign=middle;spacingLeft=4;spacingRight=4;overflow=hidden;points=[[0,0.5],[1,0.5]];portConstraint=eastwest;rotatable=0;whiteSpace=wrap;html=1;shadow=0;glass=0;rounded=0;labelBackgroundColor=none;fontColor=#393C56;" vertex="1" parent="HTfVYZgSSP5US-j0loT6-35">
          <mxGeometry y="90" width="200" height="30" as="geometry" />
        </mxCell>
        <mxCell id="uxUUBDtPVxAtOmCFpbB9-30" value="- baseSpawnRate : float" style="text;align=left;verticalAlign=middle;spacingLeft=4;spacingRight=4;overflow=hidden;points=[[0,0.5],[1,0.5]];portConstraint=eastwest;rotatable=0;whiteSpace=wrap;html=1;shadow=0;glass=0;rounded=0;labelBackgroundColor=none;fontColor=#393C56;" vertex="1" parent="HTfVYZgSSP5US-j0loT6-35">
          <mxGeometry y="120" width="200" height="30" as="geometry" />
        </mxCell>
        <mxCell id="uxUUBDtPVxAtOmCFpbB9-31" value="- enemiesActive : Enemy[]" style="text;align=left;verticalAlign=middle;spacingLeft=4;spacingRight=4;overflow=hidden;points=[[0,0.5],[1,0.5]];portConstraint=eastwest;rotatable=0;whiteSpace=wrap;html=1;shadow=0;glass=0;rounded=0;labelBackgroundColor=none;fontColor=#393C56;" vertex="1" parent="HTfVYZgSSP5US-j0loT6-35">
          <mxGeometry y="150" width="200" height="30" as="geometry" />
        </mxCell>
        <mxCell id="uxUUBDtPVxAtOmCFpbB9-33" value="- enemyToActivate : int" style="text;align=left;verticalAlign=middle;spacingLeft=4;spacingRight=4;overflow=hidden;points=[[0,0.5],[1,0.5]];portConstraint=eastwest;rotatable=0;whiteSpace=wrap;html=1;shadow=0;glass=0;rounded=0;labelBackgroundColor=none;fontColor=#393C56;" vertex="1" parent="HTfVYZgSSP5US-j0loT6-35">
          <mxGeometry y="180" width="200" height="30" as="geometry" />
        </mxCell>
        <mxCell id="uxUUBDtPVxAtOmCFpbB9-32" value="- spikeIteration : int" style="text;align=left;verticalAlign=middle;spacingLeft=4;spacingRight=4;overflow=hidden;points=[[0,0.5],[1,0.5]];portConstraint=eastwest;rotatable=0;whiteSpace=wrap;html=1;shadow=0;glass=0;rounded=0;labelBackgroundColor=none;fontColor=#393C56;" vertex="1" parent="HTfVYZgSSP5US-j0loT6-35">
          <mxGeometry y="210" width="200" height="30" as="geometry" />
        </mxCell>
        <mxCell id="HTfVYZgSSP5US-j0loT6-37" value="&lt;div&gt;&lt;br&gt;&lt;/div&gt;&lt;div&gt;&lt;br&gt;&lt;/div&gt;" style="text;align=left;verticalAlign=middle;spacingLeft=4;spacingRight=4;overflow=hidden;points=[[0,0.5],[1,0.5]];portConstraint=eastwest;rotatable=0;whiteSpace=wrap;html=1;shadow=0;glass=0;rounded=0;labelBackgroundColor=none;fillColor=#ffe6cc;strokeColor=#FFB570;" vertex="1" parent="HTfVYZgSSP5US-j0loT6-35">
          <mxGeometry y="240" width="200" height="10" as="geometry" />
        </mxCell>
        <mxCell id="ge2jfb7QDJQyRdWGK89G-11" value="+ Update(deltaTime : float) : void" style="text;align=left;verticalAlign=middle;spacingLeft=4;spacingRight=4;overflow=hidden;points=[[0,0.5],[1,0.5]];portConstraint=eastwest;rotatable=0;whiteSpace=wrap;html=1;shadow=0;glass=0;rounded=0;labelBackgroundColor=none;fontColor=#393C56;" vertex="1" parent="HTfVYZgSSP5US-j0loT6-35">
          <mxGeometry y="250" width="200" height="30" as="geometry" />
        </mxCell>
        <mxCell id="uxUUBDtPVxAtOmCFpbB9-34" value="+ DrawEnemies() : void" style="text;align=left;verticalAlign=middle;spacingLeft=4;spacingRight=4;overflow=hidden;points=[[0,0.5],[1,0.5]];portConstraint=eastwest;rotatable=0;whiteSpace=wrap;html=1;shadow=0;glass=0;rounded=0;labelBackgroundColor=none;fontColor=#393C56;" vertex="1" parent="HTfVYZgSSP5US-j0loT6-35">
          <mxGeometry y="280" width="200" height="30" as="geometry" />
        </mxCell>
        <mxCell id="uxUUBDtPVxAtOmCFpbB9-35" value="+ ResetStats() : void" style="text;align=left;verticalAlign=middle;spacingLeft=4;spacingRight=4;overflow=hidden;points=[[0,0.5],[1,0.5]];portConstraint=eastwest;rotatable=0;whiteSpace=wrap;html=1;shadow=0;glass=0;rounded=0;labelBackgroundColor=none;fontColor=#393C56;" vertex="1" parent="HTfVYZgSSP5US-j0loT6-35">
          <mxGeometry y="310" width="200" height="30" as="geometry" />
        </mxCell>
        <mxCell id="HTfVYZgSSP5US-j0loT6-38" value="+ SpawnEnemy() : void" style="text;align=left;verticalAlign=middle;spacingLeft=4;spacingRight=4;overflow=hidden;points=[[0,0.5],[1,0.5]];portConstraint=eastwest;rotatable=0;whiteSpace=wrap;html=1;shadow=0;glass=0;rounded=0;labelBackgroundColor=none;fontColor=#393C56;" vertex="1" parent="HTfVYZgSSP5US-j0loT6-35">
          <mxGeometry y="340" width="200" height="30" as="geometry" />
        </mxCell>
        <mxCell id="ge2jfb7QDJQyRdWGK89G-12" value="Saw" style="swimlane;fontStyle=0;childLayout=stackLayout;horizontal=1;startSize=30;horizontalStack=0;resizeParent=1;resizeParentMax=0;resizeLast=0;collapsible=1;marginBottom=0;whiteSpace=wrap;html=1;swimlaneFillColor=default;gradientDirection=north;shadow=0;glass=0;rounded=0;labelBackgroundColor=none;fillColor=#F2CC8F;strokeColor=#E07A5F;fontColor=#393C56;" vertex="1" parent="WIyWlLk6GJQsqaUBKTNV-1">
          <mxGeometry x="900" y="880" width="200" height="250" as="geometry" />
        </mxCell>
        <mxCell id="ge2jfb7QDJQyRdWGK89G-14" value="- SawTexturePath : string" style="text;align=left;verticalAlign=middle;spacingLeft=4;spacingRight=4;overflow=hidden;points=[[0,0.5],[1,0.5]];portConstraint=eastwest;rotatable=0;whiteSpace=wrap;html=1;shadow=0;glass=0;rounded=0;labelBackgroundColor=none;fontColor=#393C56;" vertex="1" parent="ge2jfb7QDJQyRdWGK89G-12">
          <mxGeometry y="30" width="200" height="30" as="geometry" />
        </mxCell>
        <mxCell id="ge2jfb7QDJQyRdWGK89G-21" value="- sawSpeed : float" style="text;align=left;verticalAlign=middle;spacingLeft=4;spacingRight=4;overflow=hidden;points=[[0,0.5],[1,0.5]];portConstraint=eastwest;rotatable=0;whiteSpace=wrap;html=1;shadow=0;glass=0;rounded=0;labelBackgroundColor=none;fontColor=#393C56;" vertex="1" parent="ge2jfb7QDJQyRdWGK89G-12">
          <mxGeometry y="60" width="200" height="30" as="geometry" />
        </mxCell>
        <mxCell id="uxUUBDtPVxAtOmCFpbB9-8" value="- player : Player" style="text;align=left;verticalAlign=middle;spacingLeft=4;spacingRight=4;overflow=hidden;points=[[0,0.5],[1,0.5]];portConstraint=eastwest;rotatable=0;whiteSpace=wrap;html=1;shadow=0;glass=0;rounded=0;labelBackgroundColor=none;fontColor=#393C56;" vertex="1" parent="ge2jfb7QDJQyRdWGK89G-12">
          <mxGeometry y="90" width="200" height="30" as="geometry" />
        </mxCell>
        <mxCell id="uxUUBDtPVxAtOmCFpbB9-9" value="- rotationSpeed : float" style="text;align=left;verticalAlign=middle;spacingLeft=4;spacingRight=4;overflow=hidden;points=[[0,0.5],[1,0.5]];portConstraint=eastwest;rotatable=0;whiteSpace=wrap;html=1;shadow=0;glass=0;rounded=0;labelBackgroundColor=none;fontColor=#393C56;" vertex="1" parent="ge2jfb7QDJQyRdWGK89G-12">
          <mxGeometry y="120" width="200" height="30" as="geometry" />
        </mxCell>
        <mxCell id="uxUUBDtPVxAtOmCFpbB9-11" value="&lt;div&gt;&lt;br&gt;&lt;/div&gt;&lt;div&gt;&lt;br&gt;&lt;/div&gt;" style="text;align=left;verticalAlign=middle;spacingLeft=4;spacingRight=4;overflow=hidden;points=[[0,0.5],[1,0.5]];portConstraint=eastwest;rotatable=0;whiteSpace=wrap;html=1;shadow=0;glass=0;rounded=0;labelBackgroundColor=none;fillColor=#ffe6cc;strokeColor=#FFB570;" vertex="1" parent="ge2jfb7QDJQyRdWGK89G-12">
          <mxGeometry y="150" width="200" height="10" as="geometry" />
        </mxCell>
        <mxCell id="uxUUBDtPVxAtOmCFpbB9-12" value="+ Saw()" style="text;align=left;verticalAlign=middle;spacingLeft=4;spacingRight=4;overflow=hidden;points=[[0,0.5],[1,0.5]];portConstraint=eastwest;rotatable=0;whiteSpace=wrap;html=1;shadow=0;glass=0;rounded=0;labelBackgroundColor=none;fontColor=#393C56;" vertex="1" parent="ge2jfb7QDJQyRdWGK89G-12">
          <mxGeometry y="160" width="200" height="30" as="geometry" />
        </mxCell>
        <mxCell id="uxUUBDtPVxAtOmCFpbB9-13" value="+ Update(deltaTime : float) : void" style="text;align=left;verticalAlign=middle;spacingLeft=4;spacingRight=4;overflow=hidden;points=[[0,0.5],[1,0.5]];portConstraint=eastwest;rotatable=0;whiteSpace=wrap;html=1;shadow=0;glass=0;rounded=0;labelBackgroundColor=none;fontColor=#393C56;" vertex="1" parent="ge2jfb7QDJQyRdWGK89G-12">
          <mxGeometry y="190" width="200" height="30" as="geometry" />
        </mxCell>
        <mxCell id="uxUUBDtPVxAtOmCFpbB9-14" value="+ Draw() : void" style="text;align=left;verticalAlign=middle;spacingLeft=4;spacingRight=4;overflow=hidden;points=[[0,0.5],[1,0.5]];portConstraint=eastwest;rotatable=0;whiteSpace=wrap;html=1;shadow=0;glass=0;rounded=0;labelBackgroundColor=none;fontColor=#393C56;" vertex="1" parent="ge2jfb7QDJQyRdWGK89G-12">
          <mxGeometry y="220" width="200" height="30" as="geometry" />
        </mxCell>
        <mxCell id="ge2jfb7QDJQyRdWGK89G-15" value="Spikes" style="swimlane;fontStyle=0;childLayout=stackLayout;horizontal=1;startSize=30;horizontalStack=0;resizeParent=1;resizeParentMax=0;resizeLast=0;collapsible=1;marginBottom=0;whiteSpace=wrap;html=1;swimlaneFillColor=default;gradientDirection=north;shadow=0;glass=0;rounded=0;labelBackgroundColor=none;fillColor=#F2CC8F;strokeColor=#E07A5F;fontColor=#393C56;" vertex="1" parent="WIyWlLk6GJQsqaUBKTNV-1">
          <mxGeometry x="1141" y="1130" width="200" height="220" as="geometry" />
        </mxCell>
        <mxCell id="uxUUBDtPVxAtOmCFpbB9-16" value="- SpikeTexturePath : string" style="text;align=left;verticalAlign=middle;spacingLeft=4;spacingRight=4;overflow=hidden;points=[[0,0.5],[1,0.5]];portConstraint=eastwest;rotatable=0;whiteSpace=wrap;html=1;shadow=0;glass=0;rounded=0;labelBackgroundColor=none;fontColor=#393C56;" vertex="1" parent="ge2jfb7QDJQyRdWGK89G-15">
          <mxGeometry y="30" width="200" height="30" as="geometry" />
        </mxCell>
        <mxCell id="uxUUBDtPVxAtOmCFpbB9-21" value="- spikeSpeed : float" style="text;align=left;verticalAlign=middle;spacingLeft=4;spacingRight=4;overflow=hidden;points=[[0,0.5],[1,0.5]];portConstraint=eastwest;rotatable=0;whiteSpace=wrap;html=1;shadow=0;glass=0;rounded=0;labelBackgroundColor=none;fontColor=#393C56;" vertex="1" parent="ge2jfb7QDJQyRdWGK89G-15">
          <mxGeometry y="60" width="200" height="30" as="geometry" />
        </mxCell>
        <mxCell id="uxUUBDtPVxAtOmCFpbB9-19" value="- spikeLimit : Vector2" style="text;align=left;verticalAlign=middle;spacingLeft=4;spacingRight=4;overflow=hidden;points=[[0,0.5],[1,0.5]];portConstraint=eastwest;rotatable=0;whiteSpace=wrap;html=1;shadow=0;glass=0;rounded=0;labelBackgroundColor=none;fontColor=#393C56;" vertex="1" parent="ge2jfb7QDJQyRdWGK89G-15">
          <mxGeometry y="90" width="200" height="30" as="geometry" />
        </mxCell>
        <mxCell id="uxUUBDtPVxAtOmCFpbB9-15" value="&lt;div&gt;&lt;br&gt;&lt;/div&gt;&lt;div&gt;&lt;br&gt;&lt;/div&gt;" style="text;align=left;verticalAlign=middle;spacingLeft=4;spacingRight=4;overflow=hidden;points=[[0,0.5],[1,0.5]];portConstraint=eastwest;rotatable=0;whiteSpace=wrap;html=1;shadow=0;glass=0;rounded=0;labelBackgroundColor=none;fillColor=#ffe6cc;strokeColor=#FFB570;" vertex="1" parent="ge2jfb7QDJQyRdWGK89G-15">
          <mxGeometry y="120" width="200" height="10" as="geometry" />
        </mxCell>
        <mxCell id="uxUUBDtPVxAtOmCFpbB9-22" value="+ Spikes(int spawnPos)" style="text;align=left;verticalAlign=middle;spacingLeft=4;spacingRight=4;overflow=hidden;points=[[0,0.5],[1,0.5]];portConstraint=eastwest;rotatable=0;whiteSpace=wrap;html=1;shadow=0;glass=0;rounded=0;labelBackgroundColor=none;fontColor=#393C56;" vertex="1" parent="ge2jfb7QDJQyRdWGK89G-15">
          <mxGeometry y="130" width="200" height="30" as="geometry" />
        </mxCell>
        <mxCell id="ge2jfb7QDJQyRdWGK89G-22" value="+ Update(deltaTime : float) : void" style="text;align=left;verticalAlign=middle;spacingLeft=4;spacingRight=4;overflow=hidden;points=[[0,0.5],[1,0.5]];portConstraint=eastwest;rotatable=0;whiteSpace=wrap;html=1;shadow=0;glass=0;rounded=0;labelBackgroundColor=none;fontColor=#393C56;" vertex="1" parent="ge2jfb7QDJQyRdWGK89G-15">
          <mxGeometry y="160" width="200" height="30" as="geometry" />
        </mxCell>
        <mxCell id="ge2jfb7QDJQyRdWGK89G-23" value="+ Draw() : void" style="text;align=left;verticalAlign=middle;spacingLeft=4;spacingRight=4;overflow=hidden;points=[[0,0.5],[1,0.5]];portConstraint=eastwest;rotatable=0;whiteSpace=wrap;html=1;shadow=0;glass=0;rounded=0;labelBackgroundColor=none;fontColor=#393C56;" vertex="1" parent="ge2jfb7QDJQyRdWGK89G-15">
          <mxGeometry y="190" width="200" height="30" as="geometry" />
        </mxCell>
        <mxCell id="ge2jfb7QDJQyRdWGK89G-18" value="Bullet" style="swimlane;fontStyle=0;childLayout=stackLayout;horizontal=1;startSize=30;horizontalStack=0;resizeParent=1;resizeParentMax=0;resizeLast=0;collapsible=1;marginBottom=0;whiteSpace=wrap;html=1;swimlaneFillColor=default;gradientDirection=north;shadow=0;glass=0;rounded=0;labelBackgroundColor=none;fillColor=#F2CC8F;strokeColor=#E07A5F;fontColor=#393C56;" vertex="1" parent="WIyWlLk6GJQsqaUBKTNV-1">
          <mxGeometry x="1380" y="1360" width="200" height="190" as="geometry" />
        </mxCell>
        <mxCell id="uxUUBDtPVxAtOmCFpbB9-17" value="- BulletTexturePath : string" style="text;align=left;verticalAlign=middle;spacingLeft=4;spacingRight=4;overflow=hidden;points=[[0,0.5],[1,0.5]];portConstraint=eastwest;rotatable=0;whiteSpace=wrap;html=1;shadow=0;glass=0;rounded=0;labelBackgroundColor=none;fontColor=#393C56;" vertex="1" parent="ge2jfb7QDJQyRdWGK89G-18">
          <mxGeometry y="30" width="200" height="30" as="geometry" />
        </mxCell>
        <mxCell id="uxUUBDtPVxAtOmCFpbB9-25" value="- bulletVelocity : float" style="text;align=left;verticalAlign=middle;spacingLeft=4;spacingRight=4;overflow=hidden;points=[[0,0.5],[1,0.5]];portConstraint=eastwest;rotatable=0;whiteSpace=wrap;html=1;shadow=0;glass=0;rounded=0;labelBackgroundColor=none;fontColor=#393C56;" vertex="1" parent="ge2jfb7QDJQyRdWGK89G-18">
          <mxGeometry y="60" width="200" height="30" as="geometry" />
        </mxCell>
        <mxCell id="uxUUBDtPVxAtOmCFpbB9-18" value="&lt;div&gt;&lt;br&gt;&lt;/div&gt;&lt;div&gt;&lt;br&gt;&lt;/div&gt;" style="text;align=left;verticalAlign=middle;spacingLeft=4;spacingRight=4;overflow=hidden;points=[[0,0.5],[1,0.5]];portConstraint=eastwest;rotatable=0;whiteSpace=wrap;html=1;shadow=0;glass=0;rounded=0;labelBackgroundColor=none;fillColor=#ffe6cc;strokeColor=#FFB570;" vertex="1" parent="ge2jfb7QDJQyRdWGK89G-18">
          <mxGeometry y="90" width="200" height="10" as="geometry" />
        </mxCell>
        <mxCell id="uxUUBDtPVxAtOmCFpbB9-26" value="+ Bullet()" style="text;align=left;verticalAlign=middle;spacingLeft=4;spacingRight=4;overflow=hidden;points=[[0,0.5],[1,0.5]];portConstraint=eastwest;rotatable=0;whiteSpace=wrap;html=1;shadow=0;glass=0;rounded=0;labelBackgroundColor=none;fontColor=#393C56;" vertex="1" parent="ge2jfb7QDJQyRdWGK89G-18">
          <mxGeometry y="100" width="200" height="30" as="geometry" />
        </mxCell>
        <mxCell id="ge2jfb7QDJQyRdWGK89G-24" value="+ Update(deltaTime : float) : void" style="text;align=left;verticalAlign=middle;spacingLeft=4;spacingRight=4;overflow=hidden;points=[[0,0.5],[1,0.5]];portConstraint=eastwest;rotatable=0;whiteSpace=wrap;html=1;shadow=0;glass=0;rounded=0;labelBackgroundColor=none;fontColor=#393C56;" vertex="1" parent="ge2jfb7QDJQyRdWGK89G-18">
          <mxGeometry y="130" width="200" height="30" as="geometry" />
        </mxCell>
        <mxCell id="ge2jfb7QDJQyRdWGK89G-25" value="+ Draw() : void" style="text;align=left;verticalAlign=middle;spacingLeft=4;spacingRight=4;overflow=hidden;points=[[0,0.5],[1,0.5]];portConstraint=eastwest;rotatable=0;whiteSpace=wrap;html=1;shadow=0;glass=0;rounded=0;labelBackgroundColor=none;fontColor=#393C56;" vertex="1" parent="ge2jfb7QDJQyRdWGK89G-18">
          <mxGeometry y="160" width="200" height="30" as="geometry" />
        </mxCell>
        <mxCell id="uxUUBDtPVxAtOmCFpbB9-212" style="edgeStyle=orthogonalEdgeStyle;rounded=0;orthogonalLoop=1;jettySize=auto;html=1;entryX=0;entryY=0.5;entryDx=0;entryDy=0;strokeWidth=3;fillColor=#ffe6cc;strokeColor=#d79b00;endArrow=diamond;endFill=1;" edge="1" parent="WIyWlLk6GJQsqaUBKTNV-1" source="ge2jfb7QDJQyRdWGK89G-40" target="uxUUBDtPVxAtOmCFpbB9-19">
          <mxGeometry relative="1" as="geometry">
            <Array as="points">
              <mxPoint x="-410" y="-330" />
              <mxPoint x="-410" y="1235" />
            </Array>
          </mxGeometry>
        </mxCell>
        <mxCell id="ge2jfb7QDJQyRdWGK89G-40" value="Vector2" style="swimlane;fontStyle=0;childLayout=stackLayout;horizontal=1;startSize=30;horizontalStack=0;resizeParent=1;resizeParentMax=0;resizeLast=0;collapsible=1;marginBottom=0;whiteSpace=wrap;html=1;swimlaneFillColor=default;gradientDirection=north;shadow=0;glass=0;rounded=0;labelBackgroundColor=none;fillColor=#F2CC8F;strokeColor=#E07A5F;fontColor=#393C56;" vertex="1" parent="WIyWlLk6GJQsqaUBKTNV-1">
          <mxGeometry x="-360" y="-350" width="270" height="370" as="geometry" />
        </mxCell>
        <mxCell id="ge2jfb7QDJQyRdWGK89G-41" value="+ x : float" style="text;align=left;verticalAlign=middle;spacingLeft=4;spacingRight=4;overflow=hidden;points=[[0,0.5],[1,0.5]];portConstraint=eastwest;rotatable=0;whiteSpace=wrap;html=1;shadow=0;glass=0;rounded=0;labelBackgroundColor=none;fontColor=#393C56;" vertex="1" parent="ge2jfb7QDJQyRdWGK89G-40">
          <mxGeometry y="30" width="270" height="30" as="geometry" />
        </mxCell>
        <mxCell id="ge2jfb7QDJQyRdWGK89G-42" value="+ y : float" style="text;align=left;verticalAlign=middle;spacingLeft=4;spacingRight=4;overflow=hidden;points=[[0,0.5],[1,0.5]];portConstraint=eastwest;rotatable=0;whiteSpace=wrap;html=1;shadow=0;glass=0;rounded=0;labelBackgroundColor=none;fontColor=#393C56;" vertex="1" parent="ge2jfb7QDJQyRdWGK89G-40">
          <mxGeometry y="60" width="270" height="30" as="geometry" />
        </mxCell>
        <mxCell id="ge2jfb7QDJQyRdWGK89G-43" value="&lt;div&gt;&lt;br&gt;&lt;/div&gt;&lt;div&gt;&lt;br&gt;&lt;/div&gt;" style="text;align=left;verticalAlign=middle;spacingLeft=4;spacingRight=4;overflow=hidden;points=[[0,0.5],[1,0.5]];portConstraint=eastwest;rotatable=0;whiteSpace=wrap;html=1;shadow=0;glass=0;rounded=0;perimeterSpacing=10;gradientDirection=north;fillStyle=auto;labelBackgroundColor=none;fillColor=#ffe6cc;strokeColor=#d79b00;" vertex="1" parent="ge2jfb7QDJQyRdWGK89G-40">
          <mxGeometry y="90" width="270" height="10" as="geometry" />
        </mxCell>
        <mxCell id="ge2jfb7QDJQyRdWGK89G-44" value="+ Vector2(x: float, y: float)&amp;nbsp;" style="text;align=left;verticalAlign=middle;spacingLeft=4;spacingRight=4;overflow=hidden;points=[[0,0.5],[1,0.5]];portConstraint=eastwest;rotatable=0;whiteSpace=wrap;html=1;shadow=0;glass=0;rounded=0;labelBackgroundColor=none;fontColor=#393C56;" vertex="1" parent="ge2jfb7QDJQyRdWGK89G-40">
          <mxGeometry y="100" width="270" height="30" as="geometry" />
        </mxCell>
        <mxCell id="ge2jfb7QDJQyRdWGK89G-45" value="+ operator+(v1: Vector2, v2: Vector2) : Vector2" style="text;align=left;verticalAlign=middle;spacingLeft=4;spacingRight=4;overflow=hidden;points=[[0,0.5],[1,0.5]];portConstraint=eastwest;rotatable=0;whiteSpace=wrap;html=1;shadow=0;glass=0;rounded=0;labelBackgroundColor=none;fontColor=#393C56;" vertex="1" parent="ge2jfb7QDJQyRdWGK89G-40">
          <mxGeometry y="130" width="270" height="30" as="geometry" />
        </mxCell>
        <mxCell id="ge2jfb7QDJQyRdWGK89G-46" value="+ operator-(v1: Vector2, v2: Vector2) : Vector2" style="text;align=left;verticalAlign=middle;spacingLeft=4;spacingRight=4;overflow=hidden;points=[[0,0.5],[1,0.5]];portConstraint=eastwest;rotatable=0;whiteSpace=wrap;html=1;shadow=0;glass=0;rounded=0;labelBackgroundColor=none;fontColor=#393C56;" vertex="1" parent="ge2jfb7QDJQyRdWGK89G-40">
          <mxGeometry y="160" width="270" height="30" as="geometry" />
        </mxCell>
        <mxCell id="ge2jfb7QDJQyRdWGK89G-47" value="+ operator*(v1: Vector2, v2: Vector2) : Vector2" style="text;align=left;verticalAlign=middle;spacingLeft=4;spacingRight=4;overflow=hidden;points=[[0,0.5],[1,0.5]];portConstraint=eastwest;rotatable=0;whiteSpace=wrap;html=1;shadow=0;glass=0;rounded=0;labelBackgroundColor=none;fontColor=#393C56;" vertex="1" parent="ge2jfb7QDJQyRdWGK89G-40">
          <mxGeometry y="190" width="270" height="30" as="geometry" />
        </mxCell>
        <mxCell id="uxUUBDtPVxAtOmCFpbB9-29" value="+ operator*(v: Vector2, f: float) : Vector2" style="text;align=left;verticalAlign=middle;spacingLeft=4;spacingRight=4;overflow=hidden;points=[[0,0.5],[1,0.5]];portConstraint=eastwest;rotatable=0;whiteSpace=wrap;html=1;shadow=0;glass=0;rounded=0;labelBackgroundColor=none;fontColor=#393C56;" vertex="1" parent="ge2jfb7QDJQyRdWGK89G-40">
          <mxGeometry y="220" width="270" height="30" as="geometry" />
        </mxCell>
        <mxCell id="ge2jfb7QDJQyRdWGK89G-48" value="+ operator/(v1: Vector2, v2: Vector2) : Vector2" style="text;align=left;verticalAlign=middle;spacingLeft=4;spacingRight=4;overflow=hidden;points=[[0,0.5],[1,0.5]];portConstraint=eastwest;rotatable=0;whiteSpace=wrap;html=1;shadow=0;glass=0;rounded=0;labelBackgroundColor=none;fontColor=#393C56;" vertex="1" parent="ge2jfb7QDJQyRdWGK89G-40">
          <mxGeometry y="250" width="270" height="30" as="geometry" />
        </mxCell>
        <mxCell id="ge2jfb7QDJQyRdWGK89G-49" value="+ Distance(other: Vector2) : double" style="text;align=left;verticalAlign=middle;spacingLeft=4;spacingRight=4;overflow=hidden;points=[[0,0.5],[1,0.5]];portConstraint=eastwest;rotatable=0;whiteSpace=wrap;html=1;shadow=0;glass=0;rounded=0;labelBackgroundColor=none;fontColor=#393C56;" vertex="1" parent="ge2jfb7QDJQyRdWGK89G-40">
          <mxGeometry y="280" width="270" height="30" as="geometry" />
        </mxCell>
        <mxCell id="ge2jfb7QDJQyRdWGK89G-50" value="+ Magnitude() : double" style="text;align=left;verticalAlign=middle;spacingLeft=4;spacingRight=4;overflow=hidden;points=[[0,0.5],[1,0.5]];portConstraint=eastwest;rotatable=0;whiteSpace=wrap;html=1;shadow=0;glass=0;rounded=0;labelBackgroundColor=none;fontColor=#393C56;" vertex="1" parent="ge2jfb7QDJQyRdWGK89G-40">
          <mxGeometry y="310" width="270" height="30" as="geometry" />
        </mxCell>
        <mxCell id="uxUUBDtPVxAtOmCFpbB9-28" value="+ Normalize() : Vector2" style="text;align=left;verticalAlign=middle;spacingLeft=4;spacingRight=4;overflow=hidden;points=[[0,0.5],[1,0.5]];portConstraint=eastwest;rotatable=0;whiteSpace=wrap;html=1;shadow=0;glass=0;rounded=0;labelBackgroundColor=none;fontColor=#393C56;" vertex="1" parent="ge2jfb7QDJQyRdWGK89G-40">
          <mxGeometry y="340" width="270" height="30" as="geometry" />
        </mxCell>
        <mxCell id="uxUUBDtPVxAtOmCFpbB9-144" style="edgeStyle=orthogonalEdgeStyle;rounded=0;orthogonalLoop=1;jettySize=auto;html=1;entryX=0;entryY=0.5;entryDx=0;entryDy=0;fillColor=#ffe6cc;strokeColor=#d79b00;strokeWidth=3;endArrow=none;endFill=0;" edge="1" parent="WIyWlLk6GJQsqaUBKTNV-1" source="uxUUBDtPVxAtOmCFpbB9-43" target="uxUUBDtPVxAtOmCFpbB9-40">
          <mxGeometry relative="1" as="geometry">
            <Array as="points">
              <mxPoint x="440" y="-1470" />
              <mxPoint x="440" y="-1055" />
            </Array>
          </mxGeometry>
        </mxCell>
        <mxCell id="uxUUBDtPVxAtOmCFpbB9-149" style="edgeStyle=orthogonalEdgeStyle;rounded=0;orthogonalLoop=1;jettySize=auto;html=1;entryX=0.5;entryY=0;entryDx=0;entryDy=0;strokeWidth=3;fillColor=#ffe6cc;strokeColor=#d79b00;endArrow=block;endFill=0;" edge="1" parent="WIyWlLk6GJQsqaUBKTNV-1" source="uxUUBDtPVxAtOmCFpbB9-43" target="fl6Fv2vDVfS6njQqJ7qm-16">
          <mxGeometry relative="1" as="geometry" />
        </mxCell>
        <mxCell id="uxUUBDtPVxAtOmCFpbB9-43" value="MainMenu" style="swimlane;fontStyle=1;align=center;verticalAlign=top;childLayout=stackLayout;horizontal=1;startSize=26;horizontalStack=0;resizeParent=1;resizeParentMax=0;resizeLast=0;collapsible=1;marginBottom=0;whiteSpace=wrap;html=1;labelBackgroundColor=none;fillColor=#F2CC8F;strokeColor=#E07A5F;fontColor=#393C56;" vertex="1" parent="WIyWlLk6GJQsqaUBKTNV-1">
          <mxGeometry x="-50" y="-1490" width="190" height="204" as="geometry" />
        </mxCell>
        <mxCell id="uxUUBDtPVxAtOmCFpbB9-62" value="- _instance : MainMenu" style="text;align=left;verticalAlign=middle;spacingLeft=4;spacingRight=4;overflow=hidden;points=[[0,0.5],[1,0.5]];portConstraint=eastwest;rotatable=0;whiteSpace=wrap;html=1;shadow=0;glass=0;rounded=0;labelBackgroundColor=none;fontColor=#393C56;" vertex="1" parent="uxUUBDtPVxAtOmCFpbB9-43">
          <mxGeometry y="26" width="190" height="30" as="geometry" />
        </mxCell>
        <mxCell id="uxUUBDtPVxAtOmCFpbB9-63" value="+ Instance : MainMenu" style="text;align=left;verticalAlign=middle;spacingLeft=4;spacingRight=4;overflow=hidden;points=[[0,0.5],[1,0.5]];portConstraint=eastwest;rotatable=0;whiteSpace=wrap;html=1;shadow=0;glass=0;rounded=0;labelBackgroundColor=none;fontColor=#393C56;" vertex="1" parent="uxUUBDtPVxAtOmCFpbB9-43">
          <mxGeometry y="56" width="190" height="30" as="geometry" />
        </mxCell>
        <mxCell id="uxUUBDtPVxAtOmCFpbB9-64" value="- MainMenuTexturePath : string" style="text;align=left;verticalAlign=middle;spacingLeft=4;spacingRight=4;overflow=hidden;points=[[0,0.5],[1,0.5]];portConstraint=eastwest;rotatable=0;whiteSpace=wrap;html=1;shadow=0;glass=0;rounded=0;labelBackgroundColor=none;fontColor=#393C56;" vertex="1" parent="uxUUBDtPVxAtOmCFpbB9-43">
          <mxGeometry y="86" width="190" height="30" as="geometry" />
        </mxCell>
        <mxCell id="uxUUBDtPVxAtOmCFpbB9-65" value="&lt;div&gt;&lt;br&gt;&lt;/div&gt;&lt;div&gt;&lt;br&gt;&lt;/div&gt;" style="text;align=left;verticalAlign=middle;spacingLeft=4;spacingRight=4;overflow=hidden;points=[[0,0.5],[1,0.5]];portConstraint=eastwest;rotatable=0;whiteSpace=wrap;html=1;shadow=0;glass=0;rounded=0;perimeterSpacing=10;gradientDirection=north;fillStyle=auto;labelBackgroundColor=none;fillColor=#ffe6cc;strokeColor=#d79b00;" vertex="1" parent="uxUUBDtPVxAtOmCFpbB9-43">
          <mxGeometry y="116" width="190" height="10" as="geometry" />
        </mxCell>
        <mxCell id="uxUUBDtPVxAtOmCFpbB9-46" value="+ Input() : void" style="text;align=left;verticalAlign=top;spacingLeft=4;spacingRight=4;overflow=hidden;rotatable=0;points=[[0,0.5],[1,0.5]];portConstraint=eastwest;whiteSpace=wrap;html=1;labelBackgroundColor=none;fontColor=#393C56;" vertex="1" parent="uxUUBDtPVxAtOmCFpbB9-43">
          <mxGeometry y="126" width="190" height="26" as="geometry" />
        </mxCell>
        <mxCell id="uxUUBDtPVxAtOmCFpbB9-66" value="+ Update(deltaTime : float) : void" style="text;align=left;verticalAlign=top;spacingLeft=4;spacingRight=4;overflow=hidden;rotatable=0;points=[[0,0.5],[1,0.5]];portConstraint=eastwest;whiteSpace=wrap;html=1;labelBackgroundColor=none;fontColor=#393C56;" vertex="1" parent="uxUUBDtPVxAtOmCFpbB9-43">
          <mxGeometry y="152" width="190" height="26" as="geometry" />
        </mxCell>
        <mxCell id="uxUUBDtPVxAtOmCFpbB9-67" value="+ Draw() : void" style="text;align=left;verticalAlign=top;spacingLeft=4;spacingRight=4;overflow=hidden;rotatable=0;points=[[0,0.5],[1,0.5]];portConstraint=eastwest;whiteSpace=wrap;html=1;labelBackgroundColor=none;fontColor=#393C56;" vertex="1" parent="uxUUBDtPVxAtOmCFpbB9-43">
          <mxGeometry y="178" width="190" height="26" as="geometry" />
        </mxCell>
        <mxCell id="uxUUBDtPVxAtOmCFpbB9-141" style="edgeStyle=orthogonalEdgeStyle;rounded=0;orthogonalLoop=1;jettySize=auto;html=1;entryX=0;entryY=0.5;entryDx=0;entryDy=0;endArrow=none;endFill=0;fillColor=#ffe6cc;strokeColor=#d79b00;strokeWidth=3;" edge="1" parent="WIyWlLk6GJQsqaUBKTNV-1" source="uxUUBDtPVxAtOmCFpbB9-68" target="uxUUBDtPVxAtOmCFpbB9-38">
          <mxGeometry relative="1" as="geometry">
            <Array as="points">
              <mxPoint x="360" y="-1240" />
              <mxPoint x="360" y="-1025" />
            </Array>
          </mxGeometry>
        </mxCell>
        <mxCell id="uxUUBDtPVxAtOmCFpbB9-68" value="VictoryMenu" style="swimlane;fontStyle=1;align=center;verticalAlign=top;childLayout=stackLayout;horizontal=1;startSize=26;horizontalStack=0;resizeParent=1;resizeParentMax=0;resizeLast=0;collapsible=1;marginBottom=0;whiteSpace=wrap;html=1;labelBackgroundColor=none;fillColor=#F2CC8F;strokeColor=#E07A5F;fontColor=#393C56;" vertex="1" parent="WIyWlLk6GJQsqaUBKTNV-1">
          <mxGeometry x="-50" y="-1260" width="190" height="208" as="geometry" />
        </mxCell>
        <mxCell id="uxUUBDtPVxAtOmCFpbB9-69" value="- _instance : VictoryMenu" style="text;align=left;verticalAlign=middle;spacingLeft=4;spacingRight=4;overflow=hidden;points=[[0,0.5],[1,0.5]];portConstraint=eastwest;rotatable=0;whiteSpace=wrap;html=1;shadow=0;glass=0;rounded=0;labelBackgroundColor=none;fontColor=#393C56;" vertex="1" parent="uxUUBDtPVxAtOmCFpbB9-68">
          <mxGeometry y="26" width="190" height="30" as="geometry" />
        </mxCell>
        <mxCell id="uxUUBDtPVxAtOmCFpbB9-70" value="+ Instance : VictoryMenu" style="text;align=left;verticalAlign=middle;spacingLeft=4;spacingRight=4;overflow=hidden;points=[[0,0.5],[1,0.5]];portConstraint=eastwest;rotatable=0;whiteSpace=wrap;html=1;shadow=0;glass=0;rounded=0;labelBackgroundColor=none;fontColor=#393C56;" vertex="1" parent="uxUUBDtPVxAtOmCFpbB9-68">
          <mxGeometry y="56" width="190" height="30" as="geometry" />
        </mxCell>
        <mxCell id="uxUUBDtPVxAtOmCFpbB9-71" value="- VictoryMenuTexturePath : string" style="text;align=left;verticalAlign=middle;spacingLeft=4;spacingRight=4;overflow=hidden;points=[[0,0.5],[1,0.5]];portConstraint=eastwest;rotatable=0;whiteSpace=wrap;html=1;shadow=0;glass=0;rounded=0;labelBackgroundColor=none;fontColor=#393C56;" vertex="1" parent="uxUUBDtPVxAtOmCFpbB9-68">
          <mxGeometry y="86" width="190" height="30" as="geometry" />
        </mxCell>
        <mxCell id="uxUUBDtPVxAtOmCFpbB9-76" value="- mainMenuCD : float" style="text;align=left;verticalAlign=middle;spacingLeft=4;spacingRight=4;overflow=hidden;points=[[0,0.5],[1,0.5]];portConstraint=eastwest;rotatable=0;whiteSpace=wrap;html=1;shadow=0;glass=0;rounded=0;labelBackgroundColor=none;fontColor=#393C56;" vertex="1" parent="uxUUBDtPVxAtOmCFpbB9-68">
          <mxGeometry y="116" width="190" height="30" as="geometry" />
        </mxCell>
        <mxCell id="uxUUBDtPVxAtOmCFpbB9-72" value="&lt;div&gt;&lt;br&gt;&lt;/div&gt;&lt;div&gt;&lt;br&gt;&lt;/div&gt;" style="text;align=left;verticalAlign=middle;spacingLeft=4;spacingRight=4;overflow=hidden;points=[[0,0.5],[1,0.5]];portConstraint=eastwest;rotatable=0;whiteSpace=wrap;html=1;shadow=0;glass=0;rounded=0;perimeterSpacing=10;gradientDirection=north;fillStyle=auto;labelBackgroundColor=none;fillColor=#ffe6cc;strokeColor=#d79b00;" vertex="1" parent="uxUUBDtPVxAtOmCFpbB9-68">
          <mxGeometry y="146" width="190" height="10" as="geometry" />
        </mxCell>
        <mxCell id="uxUUBDtPVxAtOmCFpbB9-74" value="+ Update(deltaTime : float) : void" style="text;align=left;verticalAlign=top;spacingLeft=4;spacingRight=4;overflow=hidden;rotatable=0;points=[[0,0.5],[1,0.5]];portConstraint=eastwest;whiteSpace=wrap;html=1;labelBackgroundColor=none;fontColor=#393C56;" vertex="1" parent="uxUUBDtPVxAtOmCFpbB9-68">
          <mxGeometry y="156" width="190" height="26" as="geometry" />
        </mxCell>
        <mxCell id="uxUUBDtPVxAtOmCFpbB9-75" value="+ Draw() : void" style="text;align=left;verticalAlign=top;spacingLeft=4;spacingRight=4;overflow=hidden;rotatable=0;points=[[0,0.5],[1,0.5]];portConstraint=eastwest;whiteSpace=wrap;html=1;labelBackgroundColor=none;fontColor=#393C56;" vertex="1" parent="uxUUBDtPVxAtOmCFpbB9-68">
          <mxGeometry y="182" width="190" height="26" as="geometry" />
        </mxCell>
        <mxCell id="uxUUBDtPVxAtOmCFpbB9-138" style="edgeStyle=orthogonalEdgeStyle;rounded=0;orthogonalLoop=1;jettySize=auto;html=1;entryX=0;entryY=0.5;entryDx=0;entryDy=0;endArrow=none;endFill=0;strokeWidth=3;fillColor=#ffe6cc;strokeColor=#d79b00;" edge="1" parent="WIyWlLk6GJQsqaUBKTNV-1" source="uxUUBDtPVxAtOmCFpbB9-85" target="uxUUBDtPVxAtOmCFpbB9-37">
          <mxGeometry relative="1" as="geometry" />
        </mxCell>
        <mxCell id="uxUUBDtPVxAtOmCFpbB9-85" value="DefeatMenu" style="swimlane;fontStyle=1;align=center;verticalAlign=top;childLayout=stackLayout;horizontal=1;startSize=26;horizontalStack=0;resizeParent=1;resizeParentMax=0;resizeLast=0;collapsible=1;marginBottom=0;whiteSpace=wrap;html=1;labelBackgroundColor=none;fillColor=#F2CC8F;strokeColor=#E07A5F;fontColor=#393C56;" vertex="1" parent="WIyWlLk6GJQsqaUBKTNV-1">
          <mxGeometry x="-50" y="-1032" width="190" height="204" as="geometry" />
        </mxCell>
        <mxCell id="uxUUBDtPVxAtOmCFpbB9-86" value="- _instance : DefeatMenu" style="text;align=left;verticalAlign=middle;spacingLeft=4;spacingRight=4;overflow=hidden;points=[[0,0.5],[1,0.5]];portConstraint=eastwest;rotatable=0;whiteSpace=wrap;html=1;shadow=0;glass=0;rounded=0;labelBackgroundColor=none;fontColor=#393C56;" vertex="1" parent="uxUUBDtPVxAtOmCFpbB9-85">
          <mxGeometry y="26" width="190" height="30" as="geometry" />
        </mxCell>
        <mxCell id="uxUUBDtPVxAtOmCFpbB9-87" value="+ Instance : DefeatMenu" style="text;align=left;verticalAlign=middle;spacingLeft=4;spacingRight=4;overflow=hidden;points=[[0,0.5],[1,0.5]];portConstraint=eastwest;rotatable=0;whiteSpace=wrap;html=1;shadow=0;glass=0;rounded=0;labelBackgroundColor=none;fontColor=#393C56;" vertex="1" parent="uxUUBDtPVxAtOmCFpbB9-85">
          <mxGeometry y="56" width="190" height="30" as="geometry" />
        </mxCell>
        <mxCell id="uxUUBDtPVxAtOmCFpbB9-88" value="- DefeatMenuTexturePath : string" style="text;align=left;verticalAlign=middle;spacingLeft=4;spacingRight=4;overflow=hidden;points=[[0,0.5],[1,0.5]];portConstraint=eastwest;rotatable=0;whiteSpace=wrap;html=1;shadow=0;glass=0;rounded=0;labelBackgroundColor=none;fontColor=#393C56;" vertex="1" parent="uxUUBDtPVxAtOmCFpbB9-85">
          <mxGeometry y="86" width="190" height="30" as="geometry" />
        </mxCell>
        <mxCell id="uxUUBDtPVxAtOmCFpbB9-89" value="&lt;div&gt;&lt;br&gt;&lt;/div&gt;&lt;div&gt;&lt;br&gt;&lt;/div&gt;" style="text;align=left;verticalAlign=middle;spacingLeft=4;spacingRight=4;overflow=hidden;points=[[0,0.5],[1,0.5]];portConstraint=eastwest;rotatable=0;whiteSpace=wrap;html=1;shadow=0;glass=0;rounded=0;perimeterSpacing=10;gradientDirection=north;fillStyle=auto;labelBackgroundColor=none;fillColor=#ffe6cc;strokeColor=#d79b00;" vertex="1" parent="uxUUBDtPVxAtOmCFpbB9-85">
          <mxGeometry y="116" width="190" height="10" as="geometry" />
        </mxCell>
        <mxCell id="uxUUBDtPVxAtOmCFpbB9-90" value="+ Input() : void" style="text;align=left;verticalAlign=top;spacingLeft=4;spacingRight=4;overflow=hidden;rotatable=0;points=[[0,0.5],[1,0.5]];portConstraint=eastwest;whiteSpace=wrap;html=1;labelBackgroundColor=none;fontColor=#393C56;" vertex="1" parent="uxUUBDtPVxAtOmCFpbB9-85">
          <mxGeometry y="126" width="190" height="26" as="geometry" />
        </mxCell>
        <mxCell id="uxUUBDtPVxAtOmCFpbB9-91" value="+ Update(deltaTime : float) : void" style="text;align=left;verticalAlign=top;spacingLeft=4;spacingRight=4;overflow=hidden;rotatable=0;points=[[0,0.5],[1,0.5]];portConstraint=eastwest;whiteSpace=wrap;html=1;labelBackgroundColor=none;fontColor=#393C56;" vertex="1" parent="uxUUBDtPVxAtOmCFpbB9-85">
          <mxGeometry y="152" width="190" height="26" as="geometry" />
        </mxCell>
        <mxCell id="uxUUBDtPVxAtOmCFpbB9-92" value="+ Draw() : void" style="text;align=left;verticalAlign=top;spacingLeft=4;spacingRight=4;overflow=hidden;rotatable=0;points=[[0,0.5],[1,0.5]];portConstraint=eastwest;whiteSpace=wrap;html=1;labelBackgroundColor=none;fontColor=#393C56;" vertex="1" parent="uxUUBDtPVxAtOmCFpbB9-85">
          <mxGeometry y="178" width="190" height="26" as="geometry" />
        </mxCell>
        <mxCell id="uxUUBDtPVxAtOmCFpbB9-128" style="edgeStyle=orthogonalEdgeStyle;rounded=0;orthogonalLoop=1;jettySize=auto;html=1;entryX=0;entryY=0.5;entryDx=0;entryDy=0;fillColor=#ffe6cc;strokeColor=#d79b00;endArrow=none;endFill=0;strokeWidth=3;" edge="1" parent="WIyWlLk6GJQsqaUBKTNV-1" source="uxUUBDtPVxAtOmCFpbB9-93" target="uxUUBDtPVxAtOmCFpbB9-36">
          <mxGeometry relative="1" as="geometry">
            <Array as="points">
              <mxPoint x="390" y="-790" />
              <mxPoint x="390" y="-965" />
            </Array>
          </mxGeometry>
        </mxCell>
        <mxCell id="uxUUBDtPVxAtOmCFpbB9-93" value="Timer" style="swimlane;fontStyle=1;align=center;verticalAlign=top;childLayout=stackLayout;horizontal=1;startSize=26;horizontalStack=0;resizeParent=1;resizeParentMax=0;resizeLast=0;collapsible=1;marginBottom=0;whiteSpace=wrap;html=1;labelBackgroundColor=none;fillColor=#F2CC8F;strokeColor=#E07A5F;fontColor=#393C56;" vertex="1" parent="WIyWlLk6GJQsqaUBKTNV-1">
          <mxGeometry x="-50" y="-810" width="190" height="252" as="geometry" />
        </mxCell>
        <mxCell id="uxUUBDtPVxAtOmCFpbB9-94" value="- _instance : Timer" style="text;align=left;verticalAlign=middle;spacingLeft=4;spacingRight=4;overflow=hidden;points=[[0,0.5],[1,0.5]];portConstraint=eastwest;rotatable=0;whiteSpace=wrap;html=1;shadow=0;glass=0;rounded=0;labelBackgroundColor=none;fontColor=#393C56;" vertex="1" parent="uxUUBDtPVxAtOmCFpbB9-93">
          <mxGeometry y="26" width="190" height="30" as="geometry" />
        </mxCell>
        <mxCell id="uxUUBDtPVxAtOmCFpbB9-95" value="+ Instance : Timer" style="text;align=left;verticalAlign=middle;spacingLeft=4;spacingRight=4;overflow=hidden;points=[[0,0.5],[1,0.5]];portConstraint=eastwest;rotatable=0;whiteSpace=wrap;html=1;shadow=0;glass=0;rounded=0;labelBackgroundColor=none;fontColor=#393C56;" vertex="1" parent="uxUUBDtPVxAtOmCFpbB9-93">
          <mxGeometry y="56" width="190" height="30" as="geometry" />
        </mxCell>
        <mxCell id="uxUUBDtPVxAtOmCFpbB9-96" value="- timer : float" style="text;align=left;verticalAlign=top;spacingLeft=4;spacingRight=4;overflow=hidden;rotatable=0;points=[[0,0.5],[1,0.5]];portConstraint=eastwest;whiteSpace=wrap;html=1;labelBackgroundColor=none;fontColor=#393C56;" vertex="1" parent="uxUUBDtPVxAtOmCFpbB9-93">
          <mxGeometry y="86" width="190" height="26" as="geometry" />
        </mxCell>
        <mxCell id="uxUUBDtPVxAtOmCFpbB9-97" value="- digitsList : int[]" style="text;align=left;verticalAlign=top;spacingLeft=4;spacingRight=4;overflow=hidden;rotatable=0;points=[[0,0.5],[1,0.5]];portConstraint=eastwest;whiteSpace=wrap;html=1;labelBackgroundColor=none;fontColor=#393C56;" vertex="1" parent="uxUUBDtPVxAtOmCFpbB9-93">
          <mxGeometry y="112" width="190" height="26" as="geometry" />
        </mxCell>
        <mxCell id="uxUUBDtPVxAtOmCFpbB9-101" value="- FirstDigitTexturePath : string" style="text;align=left;verticalAlign=top;spacingLeft=4;spacingRight=4;overflow=hidden;rotatable=0;points=[[0,0.5],[1,0.5]];portConstraint=eastwest;whiteSpace=wrap;html=1;labelBackgroundColor=none;fontColor=#393C56;" vertex="1" parent="uxUUBDtPVxAtOmCFpbB9-93">
          <mxGeometry y="138" width="190" height="26" as="geometry" />
        </mxCell>
        <mxCell id="uxUUBDtPVxAtOmCFpbB9-102" value="- SecondDigitTexturePath : string" style="text;align=left;verticalAlign=top;spacingLeft=4;spacingRight=4;overflow=hidden;rotatable=0;points=[[0,0.5],[1,0.5]];portConstraint=eastwest;whiteSpace=wrap;html=1;labelBackgroundColor=none;fontColor=#393C56;" vertex="1" parent="uxUUBDtPVxAtOmCFpbB9-93">
          <mxGeometry y="164" width="190" height="26" as="geometry" />
        </mxCell>
        <mxCell id="uxUUBDtPVxAtOmCFpbB9-98" value="&lt;div&gt;&lt;br&gt;&lt;/div&gt;&lt;div&gt;&lt;br&gt;&lt;/div&gt;" style="text;align=left;verticalAlign=middle;spacingLeft=4;spacingRight=4;overflow=hidden;points=[[0,0.5],[1,0.5]];portConstraint=eastwest;rotatable=0;whiteSpace=wrap;html=1;shadow=0;glass=0;rounded=0;perimeterSpacing=10;gradientDirection=north;fillStyle=auto;labelBackgroundColor=none;fillColor=#ffe6cc;strokeColor=#d79b00;" vertex="1" parent="uxUUBDtPVxAtOmCFpbB9-93">
          <mxGeometry y="190" width="190" height="10" as="geometry" />
        </mxCell>
        <mxCell id="uxUUBDtPVxAtOmCFpbB9-99" value="+ Draw() : void" style="text;align=left;verticalAlign=top;spacingLeft=4;spacingRight=4;overflow=hidden;rotatable=0;points=[[0,0.5],[1,0.5]];portConstraint=eastwest;whiteSpace=wrap;html=1;labelBackgroundColor=none;fontColor=#393C56;" vertex="1" parent="uxUUBDtPVxAtOmCFpbB9-93">
          <mxGeometry y="200" width="190" height="26" as="geometry" />
        </mxCell>
        <mxCell id="uxUUBDtPVxAtOmCFpbB9-100" value="+ ResetTimer() : void" style="text;align=left;verticalAlign=top;spacingLeft=4;spacingRight=4;overflow=hidden;rotatable=0;points=[[0,0.5],[1,0.5]];portConstraint=eastwest;whiteSpace=wrap;html=1;labelBackgroundColor=none;fontColor=#393C56;" vertex="1" parent="uxUUBDtPVxAtOmCFpbB9-93">
          <mxGeometry y="226" width="190" height="26" as="geometry" />
        </mxCell>
        <mxCell id="uxUUBDtPVxAtOmCFpbB9-123" value="1" style="text;align=center;fontStyle=1;verticalAlign=middle;spacingLeft=3;spacingRight=3;strokeColor=none;rotatable=0;points=[[0,0.5],[1,0.5]];portConstraint=eastwest;html=1;" vertex="1" parent="WIyWlLk6GJQsqaUBKTNV-1">
          <mxGeometry x="855" y="-1110" width="20" height="26" as="geometry" />
        </mxCell>
        <mxCell id="uxUUBDtPVxAtOmCFpbB9-124" value="1" style="text;align=center;fontStyle=1;verticalAlign=middle;spacingLeft=3;spacingRight=3;strokeColor=none;rotatable=0;points=[[0,0.5],[1,0.5]];portConstraint=eastwest;html=1;" vertex="1" parent="WIyWlLk6GJQsqaUBKTNV-1">
          <mxGeometry x="1221" y="-910" width="20" height="26" as="geometry" />
        </mxCell>
        <mxCell id="uxUUBDtPVxAtOmCFpbB9-125" style="edgeStyle=orthogonalEdgeStyle;rounded=0;orthogonalLoop=1;jettySize=auto;html=1;entryX=1;entryY=0.5;entryDx=0;entryDy=0;endArrow=none;endFill=0;fillColor=#ffe6cc;strokeColor=#d79b00;strokeWidth=3;" edge="1" parent="WIyWlLk6GJQsqaUBKTNV-1" source="fl6Fv2vDVfS6njQqJ7qm-8" target="uxUUBDtPVxAtOmCFpbB9-39">
          <mxGeometry relative="1" as="geometry">
            <mxPoint x="1140" y="-1110" as="sourcePoint" />
            <Array as="points">
              <mxPoint x="1120" y="-1115" />
              <mxPoint x="1120" y="-1115" />
            </Array>
          </mxGeometry>
        </mxCell>
        <mxCell id="uxUUBDtPVxAtOmCFpbB9-126" value="1" style="text;align=center;fontStyle=1;verticalAlign=middle;spacingLeft=3;spacingRight=3;strokeColor=none;rotatable=0;points=[[0,0.5],[1,0.5]];portConstraint=eastwest;html=1;" vertex="1" parent="WIyWlLk6GJQsqaUBKTNV-1">
          <mxGeometry x="855" y="-1140" width="20" height="26" as="geometry" />
        </mxCell>
        <mxCell id="uxUUBDtPVxAtOmCFpbB9-127" value="1" style="text;align=center;fontStyle=1;verticalAlign=middle;spacingLeft=3;spacingRight=3;strokeColor=none;rotatable=0;points=[[0,0.5],[1,0.5]];portConstraint=eastwest;html=1;" vertex="1" parent="WIyWlLk6GJQsqaUBKTNV-1">
          <mxGeometry x="1151" y="-1136" width="20" height="26" as="geometry" />
        </mxCell>
        <mxCell id="uxUUBDtPVxAtOmCFpbB9-129" value="1" style="text;align=center;fontStyle=1;verticalAlign=middle;spacingLeft=3;spacingRight=3;strokeColor=none;rotatable=0;points=[[0,0.5],[1,0.5]];portConstraint=eastwest;html=1;" vertex="1" parent="WIyWlLk6GJQsqaUBKTNV-1">
          <mxGeometry x="565" y="-990" width="20" height="26" as="geometry" />
        </mxCell>
        <mxCell id="uxUUBDtPVxAtOmCFpbB9-130" value="1" style="text;align=center;fontStyle=1;verticalAlign=middle;spacingLeft=3;spacingRight=3;strokeColor=none;rotatable=0;points=[[0,0.5],[1,0.5]];portConstraint=eastwest;html=1;" vertex="1" parent="WIyWlLk6GJQsqaUBKTNV-1">
          <mxGeometry x="140" y="-820" width="20" height="26" as="geometry" />
        </mxCell>
        <mxCell id="uxUUBDtPVxAtOmCFpbB9-139" value="1" style="text;align=center;fontStyle=1;verticalAlign=middle;spacingLeft=3;spacingRight=3;strokeColor=none;rotatable=0;points=[[0,0.5],[1,0.5]];portConstraint=eastwest;html=1;" vertex="1" parent="WIyWlLk6GJQsqaUBKTNV-1">
          <mxGeometry x="565" y="-1020" width="20" height="26" as="geometry" />
        </mxCell>
        <mxCell id="uxUUBDtPVxAtOmCFpbB9-140" value="1" style="text;align=center;fontStyle=1;verticalAlign=middle;spacingLeft=3;spacingRight=3;strokeColor=none;rotatable=0;points=[[0,0.5],[1,0.5]];portConstraint=eastwest;html=1;" vertex="1" parent="WIyWlLk6GJQsqaUBKTNV-1">
          <mxGeometry x="140" y="-960" width="20" height="26" as="geometry" />
        </mxCell>
        <mxCell id="uxUUBDtPVxAtOmCFpbB9-142" value="1" style="text;align=center;fontStyle=1;verticalAlign=middle;spacingLeft=3;spacingRight=3;strokeColor=none;rotatable=0;points=[[0,0.5],[1,0.5]];portConstraint=eastwest;html=1;" vertex="1" parent="WIyWlLk6GJQsqaUBKTNV-1">
          <mxGeometry x="565" y="-1046" width="20" height="26" as="geometry" />
        </mxCell>
        <mxCell id="uxUUBDtPVxAtOmCFpbB9-143" value="1" style="text;align=center;fontStyle=1;verticalAlign=middle;spacingLeft=3;spacingRight=3;strokeColor=none;rotatable=0;points=[[0,0.5],[1,0.5]];portConstraint=eastwest;html=1;" vertex="1" parent="WIyWlLk6GJQsqaUBKTNV-1">
          <mxGeometry x="140" y="-1260" width="20" height="26" as="geometry" />
        </mxCell>
        <mxCell id="uxUUBDtPVxAtOmCFpbB9-145" value="1" style="text;align=center;fontStyle=1;verticalAlign=middle;spacingLeft=3;spacingRight=3;strokeColor=none;rotatable=0;points=[[0,0.5],[1,0.5]];portConstraint=eastwest;html=1;" vertex="1" parent="WIyWlLk6GJQsqaUBKTNV-1">
          <mxGeometry x="565" y="-1078" width="20" height="26" as="geometry" />
        </mxCell>
        <mxCell id="uxUUBDtPVxAtOmCFpbB9-146" value="1" style="text;align=center;fontStyle=1;verticalAlign=middle;spacingLeft=3;spacingRight=3;strokeColor=none;rotatable=0;points=[[0,0.5],[1,0.5]];portConstraint=eastwest;html=1;" vertex="1" parent="WIyWlLk6GJQsqaUBKTNV-1">
          <mxGeometry x="140" y="-1490" width="20" height="26" as="geometry" />
        </mxCell>
        <mxCell id="uxUUBDtPVxAtOmCFpbB9-151" style="edgeStyle=orthogonalEdgeStyle;rounded=0;orthogonalLoop=1;jettySize=auto;html=1;entryX=0.474;entryY=1;entryDx=0;entryDy=0;entryPerimeter=0;strokeWidth=3;fillColor=#ffe6cc;strokeColor=#d79b00;endArrow=block;endFill=0;" edge="1" parent="WIyWlLk6GJQsqaUBKTNV-1" source="uxUUBDtPVxAtOmCFpbB9-85" target="uxUUBDtPVxAtOmCFpbB9-105">
          <mxGeometry relative="1" as="geometry">
            <Array as="points">
              <mxPoint x="-350" y="-1010" />
            </Array>
          </mxGeometry>
        </mxCell>
        <mxCell id="uxUUBDtPVxAtOmCFpbB9-152" style="edgeStyle=orthogonalEdgeStyle;rounded=0;orthogonalLoop=1;jettySize=auto;html=1;entryX=1;entryY=0.101;entryDx=0;entryDy=0;entryPerimeter=0;strokeWidth=3;fillColor=#ffe6cc;strokeColor=#d79b00;endArrow=block;endFill=0;" edge="1" parent="WIyWlLk6GJQsqaUBKTNV-1" source="uxUUBDtPVxAtOmCFpbB9-68" target="fl6Fv2vDVfS6njQqJ7qm-16">
          <mxGeometry relative="1" as="geometry">
            <Array as="points">
              <mxPoint x="-100" y="-1246" />
            </Array>
          </mxGeometry>
        </mxCell>
        <mxCell id="uxUUBDtPVxAtOmCFpbB9-196" style="edgeStyle=orthogonalEdgeStyle;rounded=0;orthogonalLoop=1;jettySize=auto;html=1;entryX=0;entryY=0.5;entryDx=0;entryDy=0;strokeWidth=3;fillColor=#ffe6cc;strokeColor=#d79b00;endArrow=none;endFill=0;" edge="1" parent="WIyWlLk6GJQsqaUBKTNV-1" source="uxUUBDtPVxAtOmCFpbB9-155" target="jk_qZapL9_kCgXDvO6Fo-20">
          <mxGeometry relative="1" as="geometry">
            <Array as="points">
              <mxPoint x="415" y="540" />
              <mxPoint x="415" y="570" />
            </Array>
          </mxGeometry>
        </mxCell>
        <mxCell id="uxUUBDtPVxAtOmCFpbB9-155" value="Environment" style="swimlane;fontStyle=0;childLayout=stackLayout;horizontal=1;startSize=30;horizontalStack=0;resizeParent=1;resizeParentMax=0;resizeLast=0;collapsible=1;marginBottom=0;whiteSpace=wrap;html=1;swimlaneFillColor=default;gradientDirection=north;shadow=0;glass=0;rounded=0;labelBackgroundColor=none;fillColor=#F2CC8F;strokeColor=#E07A5F;fontColor=#393C56;" vertex="1" parent="WIyWlLk6GJQsqaUBKTNV-1">
          <mxGeometry x="160" y="520" width="150" height="270" as="geometry" />
        </mxCell>
        <mxCell id="uxUUBDtPVxAtOmCFpbB9-156" value="+ RIGHT : float" style="text;align=left;verticalAlign=middle;spacingLeft=4;spacingRight=4;overflow=hidden;points=[[0,0.5],[1,0.5]];portConstraint=eastwest;rotatable=0;whiteSpace=wrap;html=1;shadow=0;glass=0;rounded=0;labelBackgroundColor=none;fontColor=#393C56;" vertex="1" parent="uxUUBDtPVxAtOmCFpbB9-155">
          <mxGeometry y="30" width="150" height="30" as="geometry" />
        </mxCell>
        <mxCell id="uxUUBDtPVxAtOmCFpbB9-157" value="+ LEFT : float" style="text;align=left;verticalAlign=middle;spacingLeft=4;spacingRight=4;overflow=hidden;points=[[0,0.5],[1,0.5]];portConstraint=eastwest;rotatable=0;whiteSpace=wrap;html=1;shadow=0;glass=0;rounded=0;labelBackgroundColor=none;fontColor=#393C56;" vertex="1" parent="uxUUBDtPVxAtOmCFpbB9-155">
          <mxGeometry y="60" width="150" height="30" as="geometry" />
        </mxCell>
        <mxCell id="uxUUBDtPVxAtOmCFpbB9-158" value="+ TOP : float" style="text;align=left;verticalAlign=middle;spacingLeft=4;spacingRight=4;overflow=hidden;points=[[0,0.5],[1,0.5]];portConstraint=eastwest;rotatable=0;whiteSpace=wrap;html=1;shadow=0;glass=0;rounded=0;labelBackgroundColor=none;fontColor=#393C56;" vertex="1" parent="uxUUBDtPVxAtOmCFpbB9-155">
          <mxGeometry y="90" width="150" height="30" as="geometry" />
        </mxCell>
        <mxCell id="uxUUBDtPVxAtOmCFpbB9-162" value="+ BOTTOM : float" style="text;align=left;verticalAlign=middle;spacingLeft=4;spacingRight=4;overflow=hidden;points=[[0,0.5],[1,0.5]];portConstraint=eastwest;rotatable=0;whiteSpace=wrap;html=1;shadow=0;glass=0;rounded=0;labelBackgroundColor=none;fontColor=#393C56;" vertex="1" parent="uxUUBDtPVxAtOmCFpbB9-155">
          <mxGeometry y="120" width="150" height="30" as="geometry" />
        </mxCell>
        <mxCell id="uxUUBDtPVxAtOmCFpbB9-160" value="+ right : BoxCollider2D" style="text;align=left;verticalAlign=middle;spacingLeft=4;spacingRight=4;overflow=hidden;points=[[0,0.5],[1,0.5]];portConstraint=eastwest;rotatable=0;whiteSpace=wrap;html=1;shadow=0;glass=0;rounded=0;labelBackgroundColor=none;fontColor=#393C56;" vertex="1" parent="uxUUBDtPVxAtOmCFpbB9-155">
          <mxGeometry y="150" width="150" height="30" as="geometry" />
        </mxCell>
        <mxCell id="uxUUBDtPVxAtOmCFpbB9-161" value="+ left: BoxCollider2D" style="text;align=left;verticalAlign=middle;spacingLeft=4;spacingRight=4;overflow=hidden;points=[[0,0.5],[1,0.5]];portConstraint=eastwest;rotatable=0;whiteSpace=wrap;html=1;shadow=0;glass=0;rounded=0;labelBackgroundColor=none;fontColor=#393C56;" vertex="1" parent="uxUUBDtPVxAtOmCFpbB9-155">
          <mxGeometry y="180" width="150" height="30" as="geometry" />
        </mxCell>
        <mxCell id="uxUUBDtPVxAtOmCFpbB9-163" value="+ top: BoxCollider2D" style="text;align=left;verticalAlign=middle;spacingLeft=4;spacingRight=4;overflow=hidden;points=[[0,0.5],[1,0.5]];portConstraint=eastwest;rotatable=0;whiteSpace=wrap;html=1;shadow=0;glass=0;rounded=0;labelBackgroundColor=none;fontColor=#393C56;" vertex="1" parent="uxUUBDtPVxAtOmCFpbB9-155">
          <mxGeometry y="210" width="150" height="30" as="geometry" />
        </mxCell>
        <mxCell id="uxUUBDtPVxAtOmCFpbB9-164" value="+ bottom : BoxCollider2D" style="text;align=left;verticalAlign=middle;spacingLeft=4;spacingRight=4;overflow=hidden;points=[[0,0.5],[1,0.5]];portConstraint=eastwest;rotatable=0;whiteSpace=wrap;html=1;shadow=0;glass=0;rounded=0;labelBackgroundColor=none;fontColor=#393C56;" vertex="1" parent="uxUUBDtPVxAtOmCFpbB9-155">
          <mxGeometry y="240" width="150" height="30" as="geometry" />
        </mxCell>
        <mxCell id="uxUUBDtPVxAtOmCFpbB9-165" value="1" style="text;align=center;fontStyle=1;verticalAlign=middle;spacingLeft=3;spacingRight=3;strokeColor=none;rotatable=0;points=[[0,0.5],[1,0.5]];portConstraint=eastwest;html=1;" vertex="1" parent="WIyWlLk6GJQsqaUBKTNV-1">
          <mxGeometry x="565" y="-930" width="20" height="26" as="geometry" />
        </mxCell>
        <mxCell id="uxUUBDtPVxAtOmCFpbB9-166" value="1" style="text;align=center;fontStyle=1;verticalAlign=middle;spacingLeft=3;spacingRight=3;strokeColor=none;rotatable=0;points=[[0,0.5],[1,0.5]];portConstraint=eastwest;html=1;" vertex="1" parent="WIyWlLk6GJQsqaUBKTNV-1">
          <mxGeometry x="180" y="-540" width="20" height="26" as="geometry" />
        </mxCell>
        <mxCell id="uxUUBDtPVxAtOmCFpbB9-168" value="1" style="text;align=center;fontStyle=1;verticalAlign=middle;spacingLeft=3;spacingRight=3;strokeColor=none;rotatable=0;points=[[0,0.5],[1,0.5]];portConstraint=eastwest;html=1;" vertex="1" parent="WIyWlLk6GJQsqaUBKTNV-1">
          <mxGeometry x="1441" y="-1000" width="20" height="26" as="geometry" />
        </mxCell>
        <mxCell id="uxUUBDtPVxAtOmCFpbB9-169" value="1" style="text;align=center;fontStyle=1;verticalAlign=middle;spacingLeft=3;spacingRight=3;strokeColor=none;rotatable=0;points=[[0,0.5],[1,0.5]];portConstraint=eastwest;html=1;" vertex="1" parent="WIyWlLk6GJQsqaUBKTNV-1">
          <mxGeometry x="1560" y="-1078" width="20" height="26" as="geometry" />
        </mxCell>
        <mxCell id="uxUUBDtPVxAtOmCFpbB9-171" style="edgeStyle=orthogonalEdgeStyle;rounded=0;orthogonalLoop=1;jettySize=auto;html=1;entryX=0;entryY=0.037;entryDx=0;entryDy=0;entryPerimeter=0;endArrow=none;endFill=0;strokeWidth=3;fillColor=#ffe6cc;strokeColor=#d79b00;" edge="1" parent="WIyWlLk6GJQsqaUBKTNV-1" source="jk_qZapL9_kCgXDvO6Fo-32" target="jk_qZapL9_kCgXDvO6Fo-0">
          <mxGeometry relative="1" as="geometry" />
        </mxCell>
        <mxCell id="uxUUBDtPVxAtOmCFpbB9-172" value="1" style="text;align=center;fontStyle=1;verticalAlign=middle;spacingLeft=3;spacingRight=3;strokeColor=none;rotatable=0;points=[[0,0.5],[1,0.5]];portConstraint=eastwest;html=1;" vertex="1" parent="WIyWlLk6GJQsqaUBKTNV-1">
          <mxGeometry x="565" y="-960" width="20" height="26" as="geometry" />
        </mxCell>
        <mxCell id="uxUUBDtPVxAtOmCFpbB9-173" value="1" style="text;align=center;fontStyle=1;verticalAlign=middle;spacingLeft=3;spacingRight=3;strokeColor=none;rotatable=0;points=[[0,0.5],[1,0.5]];portConstraint=eastwest;html=1;" vertex="1" parent="WIyWlLk6GJQsqaUBKTNV-1">
          <mxGeometry x="500" y="-26" width="20" height="26" as="geometry" />
        </mxCell>
        <mxCell id="uxUUBDtPVxAtOmCFpbB9-174" style="edgeStyle=orthogonalEdgeStyle;rounded=0;orthogonalLoop=1;jettySize=auto;html=1;entryX=0;entryY=0.065;entryDx=0;entryDy=0;entryPerimeter=0;fillColor=#ffe6cc;strokeColor=#d79b00;strokeWidth=3;endArrow=none;endFill=0;startArrow=diamond;startFill=0;" edge="1" parent="WIyWlLk6GJQsqaUBKTNV-1" source="fl6Fv2vDVfS6njQqJ7qm-17" target="jk_qZapL9_kCgXDvO6Fo-22">
          <mxGeometry relative="1" as="geometry">
            <mxPoint x="140" y="290" as="targetPoint" />
            <Array as="points">
              <mxPoint x="-460" y="-1221" />
              <mxPoint x="-460" y="285" />
            </Array>
          </mxGeometry>
        </mxCell>
        <mxCell id="uxUUBDtPVxAtOmCFpbB9-175" style="edgeStyle=orthogonalEdgeStyle;rounded=0;orthogonalLoop=1;jettySize=auto;html=1;entryX=0.999;entryY=0.05;entryDx=0;entryDy=0;entryPerimeter=0;endArrow=none;endFill=0;strokeWidth=3;fillColor=#ffe6cc;strokeColor=#d79b00;startArrow=diamond;startFill=1;" edge="1" parent="WIyWlLk6GJQsqaUBKTNV-1" source="fEk0iojJ8SfyXAqyyFPa-36" target="ge2jfb7QDJQyRdWGK89G-40">
          <mxGeometry relative="1" as="geometry">
            <Array as="points">
              <mxPoint x="20" y="-332" />
            </Array>
          </mxGeometry>
        </mxCell>
        <mxCell id="uxUUBDtPVxAtOmCFpbB9-176" value="1" style="text;align=center;fontStyle=1;verticalAlign=middle;spacingLeft=3;spacingRight=3;strokeColor=none;rotatable=0;points=[[0,0.5],[1,0.5]];portConstraint=eastwest;html=1;" vertex="1" parent="WIyWlLk6GJQsqaUBKTNV-1">
          <mxGeometry x="-460" y="-1250" width="20" height="26" as="geometry" />
        </mxCell>
        <mxCell id="uxUUBDtPVxAtOmCFpbB9-177" value="1" style="text;align=center;fontStyle=1;verticalAlign=middle;spacingLeft=3;spacingRight=3;strokeColor=none;rotatable=0;points=[[0,0.5],[1,0.5]];portConstraint=eastwest;html=1;" vertex="1" parent="WIyWlLk6GJQsqaUBKTNV-1">
          <mxGeometry x="-20" y="260" width="20" height="26" as="geometry" />
        </mxCell>
        <mxCell id="uxUUBDtPVxAtOmCFpbB9-179" value="1" style="text;align=center;fontStyle=1;verticalAlign=middle;spacingLeft=3;spacingRight=3;strokeColor=none;rotatable=0;points=[[0,0.5],[1,0.5]];portConstraint=eastwest;html=1;" vertex="1" parent="WIyWlLk6GJQsqaUBKTNV-1">
          <mxGeometry x="20" y="-360" width="20" height="26" as="geometry" />
        </mxCell>
        <mxCell id="uxUUBDtPVxAtOmCFpbB9-180" value="1" style="text;align=center;fontStyle=1;verticalAlign=middle;spacingLeft=3;spacingRight=3;strokeColor=none;rotatable=0;points=[[0,0.5],[1,0.5]];portConstraint=eastwest;html=1;" vertex="1" parent="WIyWlLk6GJQsqaUBKTNV-1">
          <mxGeometry x="-90" y="-360" width="20" height="26" as="geometry" />
        </mxCell>
        <mxCell id="uxUUBDtPVxAtOmCFpbB9-181" style="edgeStyle=orthogonalEdgeStyle;rounded=0;orthogonalLoop=1;jettySize=auto;html=1;entryX=1;entryY=0;entryDx=0;entryDy=0;fillColor=#ffe6cc;strokeColor=#d79b00;strokeWidth=3;endArrow=none;endFill=0;startArrow=diamond;startFill=1;" edge="1" parent="WIyWlLk6GJQsqaUBKTNV-1" source="fl6Fv2vDVfS6njQqJ7qm-13" target="fEk0iojJ8SfyXAqyyFPa-36">
          <mxGeometry relative="1" as="geometry">
            <Array as="points">
              <mxPoint x="485" y="-361" />
              <mxPoint x="485" y="-380" />
            </Array>
          </mxGeometry>
        </mxCell>
        <mxCell id="uxUUBDtPVxAtOmCFpbB9-182" style="edgeStyle=orthogonalEdgeStyle;rounded=0;orthogonalLoop=1;jettySize=auto;html=1;entryX=0.999;entryY=0.05;entryDx=0;entryDy=0;entryPerimeter=0;endArrow=none;endFill=0;strokeWidth=3;fillColor=#ffe6cc;strokeColor=#d79b00;startArrow=diamond;startFill=1;exitX=0;exitY=0.5;exitDx=0;exitDy=0;" edge="1" parent="WIyWlLk6GJQsqaUBKTNV-1" source="fl6Fv2vDVfS6njQqJ7qm-15">
          <mxGeometry relative="1" as="geometry">
            <mxPoint x="462.6666666666667" y="-170" as="sourcePoint" />
            <mxPoint x="-90" y="-321" as="targetPoint" />
            <Array as="points">
              <mxPoint x="420" y="-335" />
              <mxPoint x="420" y="-100" />
              <mxPoint y="-100" />
              <mxPoint y="-321" />
            </Array>
          </mxGeometry>
        </mxCell>
        <mxCell id="uxUUBDtPVxAtOmCFpbB9-183" value="1" style="text;align=center;fontStyle=1;verticalAlign=middle;spacingLeft=3;spacingRight=3;strokeColor=none;rotatable=0;points=[[0,0.5],[1,0.5]];portConstraint=eastwest;html=1;" vertex="1" parent="WIyWlLk6GJQsqaUBKTNV-1">
          <mxGeometry x="570" y="-360" width="20" height="26" as="geometry" />
        </mxCell>
        <mxCell id="uxUUBDtPVxAtOmCFpbB9-184" value="1" style="text;align=center;fontStyle=1;verticalAlign=middle;spacingLeft=3;spacingRight=3;strokeColor=none;rotatable=0;points=[[0,0.5],[1,0.5]];portConstraint=eastwest;html=1;" vertex="1" parent="WIyWlLk6GJQsqaUBKTNV-1">
          <mxGeometry x="-90" y="-320" width="20" height="26" as="geometry" />
        </mxCell>
        <mxCell id="uxUUBDtPVxAtOmCFpbB9-185" value="1" style="text;align=center;fontStyle=1;verticalAlign=middle;spacingLeft=3;spacingRight=3;strokeColor=none;rotatable=0;points=[[0,0.5],[1,0.5]];portConstraint=eastwest;html=1;" vertex="1" parent="WIyWlLk6GJQsqaUBKTNV-1">
          <mxGeometry x="370" y="-406" width="20" height="26" as="geometry" />
        </mxCell>
        <mxCell id="uxUUBDtPVxAtOmCFpbB9-186" value="1" style="text;align=center;fontStyle=1;verticalAlign=middle;spacingLeft=3;spacingRight=3;strokeColor=none;rotatable=0;points=[[0,0.5],[1,0.5]];portConstraint=eastwest;html=1;" vertex="1" parent="WIyWlLk6GJQsqaUBKTNV-1">
          <mxGeometry x="570" y="-386" width="20" height="26" as="geometry" />
        </mxCell>
        <mxCell id="uxUUBDtPVxAtOmCFpbB9-192" value="1" style="text;align=center;fontStyle=1;verticalAlign=middle;spacingLeft=3;spacingRight=3;strokeColor=none;rotatable=0;points=[[0,0.5],[1,0.5]];portConstraint=eastwest;html=1;" vertex="1" parent="WIyWlLk6GJQsqaUBKTNV-1">
          <mxGeometry x="130" y="244" width="20" height="26" as="geometry" />
        </mxCell>
        <mxCell id="uxUUBDtPVxAtOmCFpbB9-193" value="1" style="text;align=center;fontStyle=1;verticalAlign=middle;spacingLeft=3;spacingRight=3;strokeColor=none;rotatable=0;points=[[0,0.5],[1,0.5]];portConstraint=eastwest;html=1;" vertex="1" parent="WIyWlLk6GJQsqaUBKTNV-1">
          <mxGeometry x="500" y="50" width="20" height="26" as="geometry" />
        </mxCell>
        <mxCell id="uxUUBDtPVxAtOmCFpbB9-194" value="1" style="text;align=center;fontStyle=1;verticalAlign=middle;spacingLeft=3;spacingRight=3;strokeColor=none;rotatable=0;points=[[0,0.5],[1,0.5]];portConstraint=eastwest;html=1;" vertex="1" parent="WIyWlLk6GJQsqaUBKTNV-1">
          <mxGeometry x="1441" y="-780" width="20" height="26" as="geometry" />
        </mxCell>
        <mxCell id="uxUUBDtPVxAtOmCFpbB9-195" value="1..n" style="text;align=center;fontStyle=1;verticalAlign=middle;spacingLeft=3;spacingRight=3;strokeColor=none;rotatable=0;points=[[0,0.5],[1,0.5]];portConstraint=eastwest;html=1;" vertex="1" parent="WIyWlLk6GJQsqaUBKTNV-1">
          <mxGeometry x="1331" y="610" width="20" height="26" as="geometry" />
        </mxCell>
        <mxCell id="uxUUBDtPVxAtOmCFpbB9-197" value="1" style="text;align=center;fontStyle=1;verticalAlign=middle;spacingLeft=3;spacingRight=3;strokeColor=none;rotatable=0;points=[[0,0.5],[1,0.5]];portConstraint=eastwest;html=1;" vertex="1" parent="WIyWlLk6GJQsqaUBKTNV-1">
          <mxGeometry x="310" y="510" width="20" height="26" as="geometry" />
        </mxCell>
        <mxCell id="uxUUBDtPVxAtOmCFpbB9-198" value="1" style="text;align=center;fontStyle=1;verticalAlign=middle;spacingLeft=3;spacingRight=3;strokeColor=none;rotatable=0;points=[[0,0.5],[1,0.5]];portConstraint=eastwest;html=1;" vertex="1" parent="WIyWlLk6GJQsqaUBKTNV-1">
          <mxGeometry x="500" y="550" width="20" height="26" as="geometry" />
        </mxCell>
        <mxCell id="uxUUBDtPVxAtOmCFpbB9-199" style="edgeStyle=orthogonalEdgeStyle;rounded=0;orthogonalLoop=1;jettySize=auto;html=1;entryX=1;entryY=0;entryDx=0;entryDy=0;fillColor=#ffe6cc;strokeColor=#d79b00;strokeWidth=3;endArrow=diamond;endFill=1;startArrow=none;startFill=0;exitX=0.995;exitY=-0.013;exitDx=0;exitDy=0;exitPerimeter=0;" edge="1" parent="WIyWlLk6GJQsqaUBKTNV-1" source="uxUUBDtPVxAtOmCFpbB9-163">
          <mxGeometry relative="1" as="geometry">
            <mxPoint x="390" y="360" as="sourcePoint" />
            <mxPoint x="370" y="-369" as="targetPoint" />
            <Array as="points">
              <mxPoint x="313" y="730" />
              <mxPoint x="460" y="730" />
              <mxPoint x="460" y="-369" />
            </Array>
          </mxGeometry>
        </mxCell>
        <mxCell id="uxUUBDtPVxAtOmCFpbB9-200" value="1" style="text;align=center;fontStyle=1;verticalAlign=middle;spacingLeft=3;spacingRight=3;strokeColor=none;rotatable=0;points=[[0,0.5],[1,0.5]];portConstraint=eastwest;html=1;" vertex="1" parent="WIyWlLk6GJQsqaUBKTNV-1">
          <mxGeometry x="370" y="-360" width="20" height="26" as="geometry" />
        </mxCell>
        <mxCell id="uxUUBDtPVxAtOmCFpbB9-201" value="1..n" style="text;align=center;fontStyle=1;verticalAlign=middle;spacingLeft=3;spacingRight=3;strokeColor=none;rotatable=0;points=[[0,0.5],[1,0.5]];portConstraint=eastwest;html=1;" vertex="1" parent="WIyWlLk6GJQsqaUBKTNV-1">
          <mxGeometry x="320" y="700" width="20" height="26" as="geometry" />
        </mxCell>
        <mxCell id="uxUUBDtPVxAtOmCFpbB9-203" style="edgeStyle=orthogonalEdgeStyle;rounded=0;orthogonalLoop=1;jettySize=auto;html=1;entryX=0.288;entryY=1.007;entryDx=0;entryDy=0;entryPerimeter=0;strokeWidth=3;fillColor=#ffe6cc;strokeColor=#d79b00;endArrow=block;endFill=0;" edge="1" parent="WIyWlLk6GJQsqaUBKTNV-1" source="ge2jfb7QDJQyRdWGK89G-12" target="_0O2KOKne8RBnipblJuF-0">
          <mxGeometry relative="1" as="geometry" />
        </mxCell>
        <mxCell id="uxUUBDtPVxAtOmCFpbB9-204" style="edgeStyle=orthogonalEdgeStyle;rounded=0;orthogonalLoop=1;jettySize=auto;html=1;entryX=0.849;entryY=1.007;entryDx=0;entryDy=0;entryPerimeter=0;strokeWidth=3;fillColor=#ffe6cc;strokeColor=#d79b00;endArrow=block;endFill=0;" edge="1" parent="WIyWlLk6GJQsqaUBKTNV-1" source="ge2jfb7QDJQyRdWGK89G-18" target="_0O2KOKne8RBnipblJuF-0">
          <mxGeometry relative="1" as="geometry">
            <Array as="points">
              <mxPoint x="1530" y="890" />
              <mxPoint x="1530" y="890" />
            </Array>
          </mxGeometry>
        </mxCell>
        <mxCell id="uxUUBDtPVxAtOmCFpbB9-205" style="edgeStyle=orthogonalEdgeStyle;rounded=0;orthogonalLoop=1;jettySize=auto;html=1;entryX=0.675;entryY=1.007;entryDx=0;entryDy=0;entryPerimeter=0;strokeWidth=3;fillColor=#ffe6cc;strokeColor=#d79b00;endArrow=block;endFill=0;" edge="1" parent="WIyWlLk6GJQsqaUBKTNV-1" source="ge2jfb7QDJQyRdWGK89G-15" target="_0O2KOKne8RBnipblJuF-0">
          <mxGeometry relative="1" as="geometry">
            <Array as="points">
              <mxPoint x="1241" y="890" />
              <mxPoint x="1495" y="890" />
            </Array>
          </mxGeometry>
        </mxCell>
        <mxCell id="uxUUBDtPVxAtOmCFpbB9-207" value="1" style="text;align=center;fontStyle=1;verticalAlign=middle;spacingLeft=3;spacingRight=3;strokeColor=none;rotatable=0;points=[[0,0.5],[1,0.5]];portConstraint=eastwest;html=1;" vertex="1" parent="WIyWlLk6GJQsqaUBKTNV-1">
          <mxGeometry x="310" y="270" width="20" height="26" as="geometry" />
        </mxCell>
        <mxCell id="uxUUBDtPVxAtOmCFpbB9-208" value="1" style="text;align=center;fontStyle=1;verticalAlign=middle;spacingLeft=3;spacingRight=3;strokeColor=none;rotatable=0;points=[[0,0.5],[1,0.5]];portConstraint=eastwest;html=1;" vertex="1" parent="WIyWlLk6GJQsqaUBKTNV-1">
          <mxGeometry x="1340" y="660" width="20" height="26" as="geometry" />
        </mxCell>
        <mxCell id="uxUUBDtPVxAtOmCFpbB9-210" value="1" style="text;align=center;fontStyle=1;verticalAlign=middle;spacingLeft=3;spacingRight=3;strokeColor=none;rotatable=0;points=[[0,0.5],[1,0.5]];portConstraint=eastwest;html=1;" vertex="1" parent="WIyWlLk6GJQsqaUBKTNV-1">
          <mxGeometry x="720" y="-25" width="20" height="26" as="geometry" />
        </mxCell>
        <mxCell id="uxUUBDtPVxAtOmCFpbB9-211" value="1" style="text;align=center;fontStyle=1;verticalAlign=middle;spacingLeft=3;spacingRight=3;strokeColor=none;rotatable=0;points=[[0,0.5],[1,0.5]];portConstraint=eastwest;html=1;" vertex="1" parent="WIyWlLk6GJQsqaUBKTNV-1">
          <mxGeometry x="875" y="960" width="20" height="26" as="geometry" />
        </mxCell>
        <mxCell id="uxUUBDtPVxAtOmCFpbB9-213" value="1" style="text;align=center;fontStyle=1;verticalAlign=middle;spacingLeft=3;spacingRight=3;strokeColor=none;rotatable=0;points=[[0,0.5],[1,0.5]];portConstraint=eastwest;html=1;" vertex="1" parent="WIyWlLk6GJQsqaUBKTNV-1">
          <mxGeometry x="1121" y="1210" width="20" height="26" as="geometry" />
        </mxCell>
        <mxCell id="uxUUBDtPVxAtOmCFpbB9-214" value="1" style="text;align=center;fontStyle=1;verticalAlign=middle;spacingLeft=3;spacingRight=3;strokeColor=none;rotatable=0;points=[[0,0.5],[1,0.5]];portConstraint=eastwest;html=1;" vertex="1" parent="WIyWlLk6GJQsqaUBKTNV-1">
          <mxGeometry x="-380" y="-350" width="20" height="26" as="geometry" />
        </mxCell>
        <mxCell id="uxUUBDtPVxAtOmCFpbB9-216" style="edgeStyle=orthogonalEdgeStyle;rounded=0;orthogonalLoop=1;jettySize=auto;html=1;entryX=0;entryY=0.5;entryDx=0;entryDy=0;exitX=0.003;exitY=0.031;exitDx=0;exitDy=0;exitPerimeter=0;strokeWidth=3;fillColor=#ffe6cc;strokeColor=#d79b00;endArrow=none;endFill=0;" edge="1" parent="WIyWlLk6GJQsqaUBKTNV-1" source="uxUUBDtPVxAtOmCFpbB9-156" target="uxUUBDtPVxAtOmCFpbB9-22">
          <mxGeometry relative="1" as="geometry">
            <Array as="points">
              <mxPoint x="140" y="551" />
              <mxPoint x="140" y="1275" />
            </Array>
          </mxGeometry>
        </mxCell>
        <mxCell id="uxUUBDtPVxAtOmCFpbB9-217" value="1" style="text;align=center;fontStyle=1;verticalAlign=middle;spacingLeft=3;spacingRight=3;strokeColor=none;rotatable=0;points=[[0,0.5],[1,0.5]];portConstraint=eastwest;html=1;" vertex="1" parent="WIyWlLk6GJQsqaUBKTNV-1">
          <mxGeometry x="140" y="526" width="20" height="26" as="geometry" />
        </mxCell>
        <mxCell id="uxUUBDtPVxAtOmCFpbB9-218" value="1" style="text;align=center;fontStyle=1;verticalAlign=middle;spacingLeft=3;spacingRight=3;strokeColor=none;rotatable=0;points=[[0,0.5],[1,0.5]];portConstraint=eastwest;html=1;" vertex="1" parent="WIyWlLk6GJQsqaUBKTNV-1">
          <mxGeometry x="1121" y="1250" width="20" height="26" as="geometry" />
        </mxCell>
        <mxCell id="uxUUBDtPVxAtOmCFpbB9-219" style="edgeStyle=orthogonalEdgeStyle;rounded=0;orthogonalLoop=1;jettySize=auto;html=1;entryX=0;entryY=0.5;entryDx=0;entryDy=0;exitX=0;exitY=0;exitDx=0;exitDy=0;endArrow=none;endFill=0;fillColor=#ffe6cc;strokeColor=#d79b00;strokeWidth=3;" edge="1" parent="WIyWlLk6GJQsqaUBKTNV-1" source="uxUUBDtPVxAtOmCFpbB9-155" target="uxUUBDtPVxAtOmCFpbB9-26">
          <mxGeometry relative="1" as="geometry">
            <Array as="points">
              <mxPoint x="110" y="520" />
              <mxPoint x="110" y="1475" />
            </Array>
          </mxGeometry>
        </mxCell>
        <mxCell id="uxUUBDtPVxAtOmCFpbB9-220" value="1" style="text;align=center;fontStyle=1;verticalAlign=middle;spacingLeft=3;spacingRight=3;strokeColor=none;rotatable=0;points=[[0,0.5],[1,0.5]];portConstraint=eastwest;html=1;" vertex="1" parent="WIyWlLk6GJQsqaUBKTNV-1">
          <mxGeometry x="1360" y="1450" width="20" height="26" as="geometry" />
        </mxCell>
        <mxCell id="uxUUBDtPVxAtOmCFpbB9-221" value="1" style="text;align=center;fontStyle=1;verticalAlign=middle;spacingLeft=3;spacingRight=3;strokeColor=none;rotatable=0;points=[[0,0.5],[1,0.5]];portConstraint=eastwest;html=1;" vertex="1" parent="WIyWlLk6GJQsqaUBKTNV-1">
          <mxGeometry x="140" y="500" width="20" height="26" as="geometry" />
        </mxCell>
        <mxCell id="UmOyp5e8nKxrVDgfQewM-0" style="edgeStyle=orthogonalEdgeStyle;rounded=0;orthogonalLoop=1;jettySize=auto;html=1;entryX=0.25;entryY=0;entryDx=0;entryDy=0;fillColor=#ffe6cc;strokeColor=#d79b00;strokeWidth=3;endArrow=none;endFill=0;startArrow=diamond;startFill=0;" edge="1" parent="WIyWlLk6GJQsqaUBKTNV-1" source="uxUUBDtPVxAtOmCFpbB9-46" target="fl6Fv2vDVfS6njQqJ7qm-8">
          <mxGeometry relative="1" as="geometry" />
        </mxCell>
        <mxCell id="UmOyp5e8nKxrVDgfQewM-1" style="edgeStyle=orthogonalEdgeStyle;rounded=0;orthogonalLoop=1;jettySize=auto;html=1;exitX=1;exitY=0.5;exitDx=0;exitDy=0;entryX=0.5;entryY=0;entryDx=0;entryDy=0;fillColor=#ffe6cc;strokeColor=#d79b00;strokeWidth=3;endArrow=none;endFill=0;startArrow=diamond;startFill=0;" edge="1" parent="WIyWlLk6GJQsqaUBKTNV-1" source="uxUUBDtPVxAtOmCFpbB9-74" target="fl6Fv2vDVfS6njQqJ7qm-8">
          <mxGeometry relative="1" as="geometry">
            <Array as="points">
              <mxPoint x="400" y="-1091" />
              <mxPoint x="400" y="-1230" />
              <mxPoint x="1306" y="-1230" />
            </Array>
          </mxGeometry>
        </mxCell>
        <mxCell id="UmOyp5e8nKxrVDgfQewM-2" style="edgeStyle=orthogonalEdgeStyle;rounded=0;orthogonalLoop=1;jettySize=auto;html=1;entryX=0.75;entryY=0;entryDx=0;entryDy=0;fillColor=#ffe6cc;strokeColor=#d79b00;strokeWidth=3;endArrow=none;endFill=0;startArrow=diamond;startFill=0;" edge="1" parent="WIyWlLk6GJQsqaUBKTNV-1" source="uxUUBDtPVxAtOmCFpbB9-90" target="fl6Fv2vDVfS6njQqJ7qm-8">
          <mxGeometry relative="1" as="geometry">
            <Array as="points">
              <mxPoint x="260" y="-893" />
              <mxPoint x="260" y="-1300" />
              <mxPoint x="1374" y="-1300" />
            </Array>
          </mxGeometry>
        </mxCell>
        <mxCell id="UmOyp5e8nKxrVDgfQewM-3" value="1" style="text;align=center;fontStyle=1;verticalAlign=middle;spacingLeft=3;spacingRight=3;strokeColor=none;rotatable=0;points=[[0,0.5],[1,0.5]];portConstraint=eastwest;html=1;" vertex="1" parent="WIyWlLk6GJQsqaUBKTNV-1">
          <mxGeometry x="140" y="-1380" width="20" height="26" as="geometry" />
        </mxCell>
        <mxCell id="UmOyp5e8nKxrVDgfQewM-4" value="1" style="text;align=center;fontStyle=1;verticalAlign=middle;spacingLeft=3;spacingRight=3;strokeColor=none;rotatable=0;points=[[0,0.5],[1,0.5]];portConstraint=eastwest;html=1;" vertex="1" parent="WIyWlLk6GJQsqaUBKTNV-1">
          <mxGeometry x="145" y="-1120" width="20" height="26" as="geometry" />
        </mxCell>
        <mxCell id="UmOyp5e8nKxrVDgfQewM-5" value="1" style="text;align=center;fontStyle=1;verticalAlign=middle;spacingLeft=3;spacingRight=3;strokeColor=none;rotatable=0;points=[[0,0.5],[1,0.5]];portConstraint=eastwest;html=1;" vertex="1" parent="WIyWlLk6GJQsqaUBKTNV-1">
          <mxGeometry x="140" y="-920" width="20" height="26" as="geometry" />
        </mxCell>
        <mxCell id="UmOyp5e8nKxrVDgfQewM-7" value="1" style="text;align=center;fontStyle=1;verticalAlign=middle;spacingLeft=3;spacingRight=3;strokeColor=none;rotatable=0;points=[[0,0.5],[1,0.5]];portConstraint=eastwest;html=1;" vertex="1" parent="WIyWlLk6GJQsqaUBKTNV-1">
          <mxGeometry x="1241" y="-1166" width="20" height="26" as="geometry" />
        </mxCell>
        <mxCell id="UmOyp5e8nKxrVDgfQewM-8" value="1" style="text;align=center;fontStyle=1;verticalAlign=middle;spacingLeft=3;spacingRight=3;strokeColor=none;rotatable=0;points=[[0,0.5],[1,0.5]];portConstraint=eastwest;html=1;" vertex="1" parent="WIyWlLk6GJQsqaUBKTNV-1">
          <mxGeometry x="1311" y="-1166" width="20" height="26" as="geometry" />
        </mxCell>
        <mxCell id="UmOyp5e8nKxrVDgfQewM-9" value="1" style="text;align=center;fontStyle=1;verticalAlign=middle;spacingLeft=3;spacingRight=3;strokeColor=none;rotatable=0;points=[[0,0.5],[1,0.5]];portConstraint=eastwest;html=1;" vertex="1" parent="WIyWlLk6GJQsqaUBKTNV-1">
          <mxGeometry x="1370" y="-1166" width="20" height="26" as="geometry" />
        </mxCell>
      </root>
    </mxGraphModel>
  </diagram>
</mxfile>
